<?xml version="1.0" encoding="iso-8859-1"?>
<!-- Generator: Adobe Illustrator 17.0.0, SVG Export Plug-In . SVG Version: 6.00 Build 0)  -->
<!DOCTYPE svg PUBLIC "-//W3C//DTD SVG 1.1//EN" "http://www.w3.org/Graphics/SVG/1.1/DTD/svg11.dtd">
<svg version="1.1" id="Layer_1" xmlns="http://www.w3.org/2000/svg" xmlns:xlink="http://www.w3.org/1999/xlink" x="0px" y="0px"
	 width="1000px" height="400px" viewBox="0 0 1000 400" style="enable-background:new 0 0 1000 400;" xml:space="preserve">
<pattern  width="324.949" height="274.973" patternUnits="userSpaceOnUse" id="Video_Lecture" viewBox="4.853 -302.239 324.949 274.973" style="overflow:visible;">
	<g>
		<polygon style="fill:none;" points="4.853,-302.239 329.802,-302.239 329.802,-27.266 4.853,-27.266 		"/>
		<g>
			<g>
				<path style="fill:#FFFFFF;" d="M300.694-5.538c-0.76,3.241-2.133,4.155-5.484,3.88c-4.04-0.332-7.997-1.051-11.659-2.808
					c-2.959-1.419-6.043-2.362-9.212-3.088c-1.115-0.255-1.829-0.694-2.377-1.847c-1.331-2.8-5.981-4.444-8.611-3.232
					c-1.156,0.533-2.191,1.277-2.365,2.648c-0.189,1.499,0.714,2.543,1.888,3.211c2.438,1.387,5.005,2.117,7.717,0.696
					c0.57-0.299,1.089-0.49,1.752-0.267c3.001,1.012,6.134,1.549,9.106,2.711c3.449,1.348,6.929,2.614,10.649,3.15
					c7.527,1.083,8.051,0.847,10.884-6.11c0.28-0.687,0.385-1.354,1.468-1.455c2.466-0.23,6.628-3.061,7.838-5.217
					c2.778-4.953,4.381-10.381,6.149-15.73c0.448-1.357,1.012-3.007,0.116-4.285c-1.495-2.132-0.332-5.118-2.45-6.995
					c-0.16-0.142,0.025-0.736,0.123-1.1c1.015-3.771,1.243-7.652,1.118-11.499c-0.237-7.33-2.926-13.711-8.424-18.69
					c-5.805-5.258-12.451-9.08-20.001-11.321c-6.556-1.946-13.266-2.458-19.952-1.486c-8.207,1.194-14.098,6.047-18.709,12.838
					c-2.008,2.958-2.771,7.112-7.036,8.264c-0.908,0.245-0.943,1.812-2.1,2.006c-1.75,0.295-2.527,1.594-3.269,2.999
					c-2.149,4.072-2.836,8.665-4.626,12.859c-1.66,3.889-0.585,7.618,0.52,11.36c0.258,0.874,0.957,1.448,1.689,1.841
					c1.152,0.619,2.369,1.152,3.611,1.563c4.263,1.41,7.002,0.232,8.457-3.994c2.237-6.5,4.228-13.085,6.311-19.637
					c0.394-1.24,0.072-2.367-0.376-3.582c-0.646-1.753-1.592-3.878-0.617-5.493c4.682-7.754,11.489-12.924,20.575-13.877
					c8.202-0.86,15.693,2.108,23.072,5.679c10.382,5.025,15.073,17.824,13.815,27.692c-0.127,0.995-0.636,1.555-1.22,2.302
					c-1.494,1.913-4.46,2.169-5.293,4.633c-2.303,6.814-5.662,13.221-7.682,20.138c-0.416,1.426-0.223,2.674,0.286,4.182
					c0.841,2.489,2.875,2.944,5.061,4.006C300.796-7.541,300.922-6.509,300.694-5.538z M248.279-64.576
					c0.401-2.321,1.958-3.895,3.092-5.685c2.912-4.6,6.736-8.209,11.638-10.644c3.087-1.533,6.319-2.255,9.787-2.353
					c6.649-0.188,13.033,0.727,19.295,3.103c7.922,3.006,14.704,7.481,19.741,14.325c2.184,2.968,2.905,6.607,3.66,10.168
					c0.686,3.234,0.082,11.762-1.059,14.178c-0.982-0.024-1.928-0.234-2.963-0.811c0.618-4.114,0.731-8.241-0.265-12.361
					c-1.688-6.984-5.283-12.578-11.366-16.561c-6.533-4.279-13.63-6.875-21.411-7.511c-11.498-0.939-19.922,4.153-26.144,13.478
					c-0.299,0.448-0.542,0.934-0.831,1.39c-0.078,0.124-0.227,0.204-0.55,0.481C250.016-63.783,249.189-64.16,248.279-64.576z
					 M242.91-32.972c-0.513,1.586-1.425,1.915-2.781,1.43c-1.231-0.441-2.426-1.004-3.591-1.602
					c-1.234-0.634-1.751-1.634-1.424-3.074c1.936-8.539,4.594-16.829,8.228-24.812c0.95-2.088,3.849-2.259,5.631-1.538
					c2.593,1.049,3.009,2,2.105,4.697c-1.376,4.104-2.852,8.175-4.286,12.26c0.153,0.053,0.305,0.107,0.458,0.161
					C245.792-41.295,244.265-37.161,242.91-32.972z M307.967-37.609c1.069-2.946,2.061-3.435,4.871-2.598
					c2.431,0.724,3.683,2.696,3.101,5.1c-2.01,8.296-5.111,16.193-8.807,23.87c-0.551,1.144-1.296,1.987-2.654,1.805
					c-2.06-0.277-4.206-0.448-5.751-2.086c-0.479-0.508-0.011-1.181,0.187-1.748c1.45-4.159,2.913-8.313,4.371-12.469
					c0.15,0.053,0.299,0.105,0.449,0.158C305.14-29.589,306.517-33.612,307.967-37.609z M240.147-58.795
					c-1.856,6.384-4.282,12.583-6.05,18.974C234.868-46.567,237.434-52.705,240.147-58.795z M317.16-31.769
					c-1.649,6.488-3.515,12.894-7.122,18.652C312.613-19.26,314.695-25.586,317.16-31.769z"/>
				<path style="fill:#FFFFFF;" d="M342.219-42.33c-0.249,0.92-0.898,0.971-1.497,0.938c-3.804-0.211-7.495,0.632-11.219,1.162
					c-1.233,0.176-2.457,0.144-3.671-0.085c-0.473-0.089-0.865-0.395-0.881-0.928c-0.016-0.53,0.315-0.923,0.829-0.907
					c5.337,0.168,10.581-2.494,15.972-0.523C341.883-42.624,341.987-42.502,342.219-42.33z"/>
				<path style="fill:#FFFFFF;" d="M327.866-37.04c5.268-0.359,10.523-0.123,15.763,0.889c-5.283,1.651-10.544,0.937-15.805,0.283
					C327.838-36.259,327.852-36.649,327.866-37.04z"/>
				<path style="fill:#FFFFFF;" d="M327.991-31.661c0.562-0.827,1.266-0.494,1.881-0.285c3.502,1.19,7.073,2.078,10.743,2.557
					c0.618,0.081,1.32,0.163,1.372,0.949c0.055,0.843-0.626,0.989-1.268,0.947c-4.424-0.288-8.658-1.263-12.493-3.595
					C328.081-31.177,328.063-31.477,327.991-31.661z"/>
			</g>
			<g>
				<path style="fill:#FFFFFF;" d="M204.75-12.588c1.671-0.883,1.975-1.974,0.692-3.632c-2.152-2.781-4.062-5.75-6.773-8.342
					c1.491-1.211,2.816-2.266,4.116-3.35c1.588-1.323,1.567-2.87,0.145-4.163c-4.036-3.671-8.129-7.28-13.023-9.837
					c-2.074-1.084-3.17-0.593-3.574,1.729c-1.128,6.484-1.248,13.062-1.862,19.593c-0.182,1.938,0.92,2.493,2.728,1.796
					c1.373-0.529,2.592-1.574,4.355-1.374c0.929,2.411,0.407,5.003,0.889,7.456c0.475,2.418,0.189,5.01,1.915,7.923
					C197.205-8.784,201.02-10.618,204.75-12.588z M202.318-30.271c-1.342,1.048-2.507,1.926-3.639,2.847
					c-2.869,2.335-2.93,2.799-0.508,5.531c2.061,2.325,4.196,4.586,6.475,7.068c-3.261,2.079-6.293,4.012-9.66,6.159
					c-0.562-5.035-0.43-9.791-1.842-14.57c-2.115,0.602-4.115,1.17-6.413,1.824c0.655-6.195,1.287-12.174,1.993-18.853
					C193.449-36.792,197.719-33.652,202.318-30.271z"/>
				<path style="fill:#FFFFFF;" d="M184.924-55.854c0.958,3.202,2.061,5.939,1.582,9.559
					C183.927-49.427,183.278-53.247,184.924-55.854z"/>
				<path style="fill:#FFFFFF;" d="M183.208-44.738c-2.866-0.23-4.631-1.972-5.962-4.308
					C180.037-48.768,181.901-47.162,183.208-44.738z"/>
				<path style="fill:#FFFFFF;" d="M197.482-48.752c-2.288,2.528-4.382,3.756-7.157,3.683
					C192.003-47.088,193.9-48.691,197.482-48.752z"/>
				<path style="fill:#FFFFFF;" d="M176.44-39.482c2.208-0.978,4.403-1.28,6.771-1.642C181.459-38.448,178.951-37.834,176.44-39.482
					z"/>
			</g>
			<g>
				<path style="fill:#FFFFFF;" d="M194.269-228.297c3.135,2.119,6.688,3.54,10.041,6.021
					C200.692-221.625,195.347-224.755,194.269-228.297z"/>
				<path style="fill:#FFFFFF;" d="M205.849-225.255c-3.608-0.811-7.673-5.352-7.39-8.215
					C201.054-230.828,203.669-228.669,205.849-225.255z"/>
				<path style="fill:#FFFFFF;" d="M191.83-223.664c2.829,1.814,6.3,0.87,9.069,3.265
					C197.279-219.301,192.35-220.964,191.83-223.664z"/>
				<g>
					<path style="fill:#FFFFFF;" d="M234.496-175.502c-2.349-1.082-4.718-1.674-6.995,0.098c-2.361,1.837-1.934,4.352-1.468,6.82
						c1.006,5.337,3.2,10.21,6.513,14.446c2.927,3.742,6.377,7.356,11.576,7.259c11.309-0.211,21.615-3.326,29.94-11.515
						c1.44-1.417,2.039-3.003,2.106-4.935c0.112-3.255-0.054-6.515-0.637-9.694c-0.778-4.24-1.499-8.57-4.418-12.055
						c-1.562-1.866-3.353-3.016-5.862-1.846c-0.616,0.287-1.169,0.416-1.634-0.233c-2.252-3.145-4.957-2.871-7.831-0.882
						c-1.525-1.685-2.705-3.586-5.108-3.938c-2.285-0.335-4.176,0.623-6.461,2.167c-0.889-3.617-1.679-6.82-2.461-10.025
						c-0.122-0.498,0.116-0.913,0.408-1.28c3.923-4.946,3.783-10.449,2.049-16.075c-1.452-4.713-3.373-9.223-8.108-11.651
						c-7.655-3.925-15.12-3.216-22.2,1.405c-6.564,4.284-8.73,10.514-7.379,18.102c0.825,4.63,2.003,9.142,5.863,12.266
						c4.979,4.03,10.721,4.788,16.837,3.467c1.02-0.22,1.987-0.643,2.278,0.919c1.093,5.854,2.716,11.58,4.486,17.802
						C235.165-175.223,234.825-175.351,234.496-175.502z M236.833-176.42c-2.07-6.729-3.857-13.531-4.826-20.518
						c-0.234-1.687-0.216-3.392,0.262-5.061c0.397-1.385,1.225-2.269,2.689-2.558c1.449-0.286,2.551,0.184,3.496,1.277
						c1.152,1.333,1.691,2.935,2.146,4.58c1.464,5.293,2.913,10.59,4.375,15.884c0.159,0.575,0.172,1.228,1.166,1.979
						c0.574-1.919-0.132-3.477-0.593-4.921c-0.659-2.064,0.158-3.374,1.858-4.156c1.975-0.909,3.958-0.739,5.524,0.968
						c1.023,1.115,1.928,2.338,2.84,3.455c0.925-0.14,0.884-0.933,1.265-1.375c1.026-1.188,2.418-1.707,3.709-0.896
						c1.174,0.738,2.862,1.566,1.855,3.636c-0.253,0.521-0.263,1.212-0.218,1.813c0.062,0.827,0.446,1.534,1.426,1.497
						c0.902-0.034,1.441-0.602,1.469-1.486c0.029-0.915-0.085-1.834-0.145-2.895c1.785-1.367,3.313-0.813,4.706,0.793
						c3.052,3.52,3.65,7.967,4.444,12.275c0.472,2.562,0.331,5.234,0.516,7.853c0.199,2.801-1.073,4.783-3.088,6.634
						c-4.178,3.836-9.212,5.902-14.511,7.45c-2.666,0.779-5.372,1.426-8.135,1.863c-7.107,1.124-12.126-2.152-15.983-7.614
						c-2.826-4.003-4.836-8.445-5.728-13.318c-0.335-1.829-0.83-3.803,1.034-5.105c1.933-1.35,3.893-0.537,5.673,0.47
						c1.281,0.724,2.279,1.831,3.084,3.096c0.436,0.685,0.761,1.534,2.266,1.766C238.479-171.682,237.57-174.025,236.833-176.42z
						 M236.388-206.021c-2.766-0.198-4.774,1.305-5.425,4.285c-0.228,1.045-0.259,2.144-0.282,3.221
						c-0.021,0.994,0.09,1.991,0.14,2.937c-6.816,3.268-18.636,0.547-21.856-9.01c-3.375-10.015-1.451-18.1,6.659-22.349
						c5.225-2.737,10.982-4.159,16.985-2.155c7.327,2.447,9.812,8.46,11.07,15.265c0.765,4.139,0.287,8.108-2.623,11.781
						C239.72-204.027,238.755-205.852,236.388-206.021z"/>
					<path style="fill:#FFFFFF;" d="M220.932-210.2c0.608,2.475,1.218,4.95,1.825,7.426c0.403,1.644,1.248,1.99,2.355,0.842
						c3.006-3.118,5.784-6.436,8.399-9.89c1.142-1.509,1.209-2.531-0.836-3.526c-3.923-1.909-8.374-2.111-12.27-4.099
						c-1.108-0.565-1.37,0.566-1.136,1.535c0.617,2.555,1.251,5.106,1.879,7.659C221.076-210.235,221.004-210.218,220.932-210.2z
						 M233.072-213.674c-2.942,3.626-5.145,7.49-8.724,10.614c-1.188-4.835-2.299-9.354-3.563-14.499
						C225.004-215.848,229.149-215.692,233.072-213.674z"/>
				</g>
			</g>
			<g>
				<path style="fill:#FFFFFF;" d="M53.545-80.835c-5.511-0.685-7.564,0.723-8.231,6.291c-1.811,15.121-2.8,30.336-5.391,45.371
					c-0.824,4.782,0.426,6.032,5.252,6.505c23.715,2.324,47.348,5.342,70.981,8.364c5.155,0.659,7.306-0.822,7.939-5.951
					c0.688-5.579,1.358-11.172,1.717-16.779c0.642-10.025,2.745-19.849,3.841-29.805c0.505-4.591-0.085-5.288-4.513-5.606
					c-11.839-0.85-23.566-2.7-35.347-4.047C77.709-77.933,65.621-79.333,53.545-80.835z M125.105-70.153
					c2.151,0.245,2.533,1.032,2.374,3.159c-1.158,15.406-3.618,30.648-5.551,45.956c-0.574,4.549-0.918,5.105-5.611,4.58
					c-18.695-2.091-37.376-4.307-56.058-6.513c-5.474-0.647-10.926-1.492-16.406-2.089c-1.85-0.202-2.044-0.995-1.923-2.615
					c1.193-15.913,3.813-31.652,5.681-47.482c0.336-2.845,1.621-3.991,4.423-3.652c11.468,1.386,22.94,2.745,34.41,4.113
					c0.001-0.011,0.003-0.022,0.004-0.033C99.332-73.193,112.212-71.62,125.105-70.153z"/>
				<path style="fill:#FFFFFF;" d="M88.119-65.829c-10.715-1.472-20.23,4.668-21.84,13.943c-2.245,12.927,3.961,20.6,16.24,22.599
					c11.008,1.791,20.382-5.516,22.07-16.879C107.274-56.311,96.872-64.627,88.119-65.829z M80.701-31.761
					c-5.305-1.635-9.842-3.876-11.958-9.443c-2.471-6.501-0.97-15.237,3.669-18.645c7.887-5.794,14.674-6.23,22.475-1.562
					c5.942,3.556,9.553,8.624,7.802,15.571C101.281-34.87,90.945-28.603,80.701-31.761z"/>
				<path style="fill:#FFFFFF;" d="M61.464-51.479c-2.788,1.42-5.557,1.382-8.28-0.11C55.953-53.5,58.699-52.564,61.464-51.479z"/>
				<path style="fill:#FFFFFF;" d="M62.033-44.404c-2.388,2.372-5.063,2.828-8.103,3.189C55.056-43.885,58.543-45.253,62.033-44.404
					z"/>
				<path style="fill:#FFFFFF;" d="M106.654-37.289c2.998,1.741,5.285,3.034,7.032,5.513
					C110.336-31.395,107.594-33.351,106.654-37.289z"/>
				<path style="fill:#FFFFFF;" d="M116.214-53.649c-2.746,1.219-5.487,2.823-8.573,1.078
					C110.454-53.266,113.186-54.481,116.214-53.649z"/>
				<path style="fill:#FFFFFF;" d="M62.442-58.582c-2.851,0.148-4.916-0.772-6.435-3.872C59.193-61.886,60.991-60.446,62.442-58.582
					z"/>
				<path style="fill:#FFFFFF;" d="M116.182-42.834c-2.744,1.458-4.92,0.273-7.43-0.083
					C110.469-44.874,112.967-44.813,116.182-42.834z"/>
				<path style="fill:#FFFFFF;" d="M79.835-45.589c-0.22,0.887-0.331,1.809-0.414,2.722c-0.248,2.721,0.381,3.218,2.824,2.312
					c1.432-0.531,2.882-1.015,4.315-1.545c6.289-2.326,6.329-2.364,1.975-7.598c-1.764-2.12-3.046-4.732-5.964-6.543
					C81.549-52.278,80.667-48.94,79.835-45.589z M83.753-51.526c1.882,2.166,3.574,4.113,5.443,6.265
					c-2.317,1.369-4.534,2.36-7.266,2.962C82.017-45.569,82.58-48.385,83.753-51.526z"/>
			</g>
			<g>
				<g>
					<path style="fill:#FFFFFF;" d="M103.792-216.059c-26.45-0.038-52.899-0.05-79.349-0.155c-1.974-0.008-2.287,0.688-2.278,2.425
						c0.084,17.093,0.095,34.186,0.124,51.279c0.006,3.22,0.001,6.441,0.001,9.989c10.756,0,20.984,0,31.047,0
						c0,4.733,0,9.126,0,13.519c0,0.986-0.817,1.206-1.472,1.587c-2.136,1.244-4.268,2.494-6.398,3.746
						c-0.469,0.275-0.98,0.547-0.882,1.22c0.115,0.793,0.757,0.907,1.382,0.964c0.769,0.07,1.544,0.119,2.316,0.115
						c5.412-0.03,10.825-0.102,16.237-0.111c5.953-0.01,11.907,0.044,17.86,0.036c0.739-0.001,1.668,0.058,1.884-0.949
						c0.193-0.901-0.641-1.145-1.21-1.484c-2.056-1.226-4.128-2.426-6.204-3.619c-0.603-0.346-1.31-0.588-1.312-1.448
						c-0.007-4.456-0.003-8.912-0.003-13.421c0.655-0.386,1.446-0.214,2.198-0.215c8.43-0.009,16.861-0.066,25.289,0.06
						c2.085,0.031,2.79-0.403,2.773-2.65c-0.129-16.86-0.114-33.721-0.142-50.582c-0.006-3.376-0.001-6.751-0.001-10.226
						C104.684-216.022,104.238-216.058,103.792-216.059z M36.147-166.287c-4.147,0-8.137,0-12.021,0
						c-0.74-0.783-0.463-1.598-0.461-2.332c0.041-14.541,0.127-29.081,0.134-43.622c0.001-1.656,0.395-2.287,2.191-2.287
						c25.75-0.003,51.5-0.079,77.25-0.131c0.225,0,0.45,0.074,1.029,0.176c0.023,15.974,0.117,31.987-0.243,48.023
						c-3.566,0-6.872-0.001-10.178,0 M88.979-166.375c-16.4,0.069-32.801,0.173-49.201,0.285 M23.725-164.554
						c0.834-0.707,1.722-0.397,2.535-0.406c23.89-0.245,47.78-0.068,71.669,0.153c0.773,0.007,1.547-0.004,2.319-0.033
						c3.852-0.145,3.853-0.148,3.859,3.616c0.003,1.701-0.059,3.405,0.017,5.102c0.062,1.378-0.42,1.901-1.854,1.9
						c-7.653-0.005-15.307,0.108-22.96,0.116c-17.702,0.017-35.404-0.002-53.106-0.012c-0.756,0-1.535,0.237-2.479-0.277
						C23.725-157.841,23.725-161.227,23.725-164.554z M47.73-133.461c1.607-0.905,3.173-1.894,4.832-2.689
						c1.595-0.764,2.234-1.843,2.185-3.643c-0.114-4.151-0.036-8.307-0.036-12.687c6.558,0,12.767,0,19.445,0
						c0,4.195,0.096,8.412-0.043,12.621c-0.064,1.927,0.686,3.004,2.338,3.787c1.586,0.752,3.087,1.683,4.625,2.536
						C69.954-132.887,58.936-132.865,47.73-133.461z"/>
					<path style="fill:#FFFFFF;" d="M97.127-211.578"/>
					<path style="fill:#FFFFFF;" d="M64.041-158.458c-1.024-0.067-2.23-0.166-2.157-1.505c0.074-1.363,0.859-2.628,2.339-2.758
						c1.292-0.113,2.232,0.844,2.291,2.138C66.585-159.022,65.459-158.498,64.041-158.458z"/>
					<path style="fill:#FFFFFF;" d="M64.41-138.151c2.221,0.013,4.109-2.21,4.182-4.922c0.08-3.021-1.878-5.129-4.895-5.266
						c-1.954-0.089-3.447,1.989-3.497,4.866C60.147-140.38,61.898-138.166,64.41-138.151z M67.304-142.97
						c-0.07,2.011-1.352,3.518-2.953,3.474c-1.64-0.046-3.116-1.96-3.071-3.984c0.042-1.904,1.269-3.279,2.892-3.241
						C66.195-146.672,67.383-145.249,67.304-142.97z"/>
				</g>
				<path style="fill:#FFFFFF;" d="M46.86-202.554c-2.724-0.013-3.642,0.791-3.643,3.542c-0.003,7.47,0.399,14.937,0.011,22.411
					c-0.123,2.377,0.558,2.913,2.936,2.863c11.685-0.247,23.371-0.15,35.056-0.052c2.549,0.021,3.511-0.825,3.521-3.36
					c0.011-2.757,0.012-5.52-0.139-8.272c-0.27-4.92,0.183-9.827,0.139-14.74c-0.021-2.265-0.349-2.57-2.524-2.468
					c-5.816,0.274-11.634,0.054-17.451,0.083C58.798-202.545,52.829-202.525,46.86-202.554z M82.334-201.51
					c1.062-0.006,1.294,0.356,1.34,1.401c0.331,7.571,0.019,15.137-0.033,22.705c-0.015,2.249-0.15,2.539-2.467,2.557
					c-9.227,0.068-18.454,0.075-27.681,0.086c-2.704,0.003-5.408-0.092-8.112-0.064c-0.913,0.009-1.054-0.366-1.089-1.162
					c-0.344-7.82,0.018-15.638,0.007-23.456c-0.002-1.405,0.557-2.038,1.942-2.036c5.666,0.009,11.332,0.004,16.998,0.004
					c0-0.006,0-0.011,0-0.017C69.605-201.493,75.969-201.476,82.334-201.51z"/>
				<path style="fill:#FFFFFF;" d="M58.169-185.396c-0.114,0.907-0.114,1.835-0.088,2.752c0.076,2.732,0.76,3.15,3.078,1.961
					c1.359-0.697,2.742-1.349,4.102-2.045c5.969-3.055,6.004-3.097,1.061-7.778c-2.003-1.896-3.585-4.338-6.697-5.79
					C59.078-192.241,58.598-188.822,58.169-185.396z M61.355-191.756c2.125,1.928,4.036,3.661,6.147,5.576
					c-2.138,1.634-4.222,2.881-6.864,3.802C60.338-185.635,60.563-188.498,61.355-191.756z"/>
			</g>
			<g>
				<path style="fill:#FFFFFF;" d="M151.708-110.326c-2.063,9.524-4.119,19.05-6.191,28.573c-0.731,3.358,0.124,4.666,3.527,5.34
					c4.248,0.842,8.5,1.666,12.739,2.549c5.527,1.151,11.041,2.363,16.564,3.529c4.005,0.846,5.846-0.447,6.355-4.489
					c0.163-1.297,0.015-2.647,0.287-3.913c4.094-19.056,8.228-38.103,12.372-57.148c0.626-2.879-0.551-4.878-3.427-5.481
					c-2.951-0.619-5.928-1.118-8.879-1.737c-6.812-1.43-13.613-2.908-20.422-4.353c-4.11-0.872-5.955,0.455-6.436,4.647
					c-0.149,1.299-0.035,2.642-0.303,3.91c-2.018,9.534-4.101,19.054-6.163,28.579C151.723-110.323,151.715-110.325,151.708-110.326
					z M182.495-73.131c-0.339,1.972-1.789,1.725-2.993,1.597c-1.835-0.194-3.643-0.671-5.453-1.071
					c-8.003-1.768-16.003-3.55-24.003-5.331c-3.411-0.76-3.697-1.131-2.945-4.598c3.77-17.38,7.58-34.751,11.36-52.129
					c0.657-3.022,1.269-6.054,1.839-9.093c0.44-2.344,1.167-2.915,3.584-2.488c1.597,0.282,3.18,0.641,4.764,0.992
					c8.153,1.806,16.305,3.618,24.456,5.434c3.098,0.69,3.44,1.151,2.764,4.319c-2.195,10.284-4.44,20.558-7.333,33.916
					C187.02-94.141,184.317-83.728,182.495-73.131z"/>
				<path style="fill:#FFFFFF;" d="M161.354-128.023c-2.456,12.988-5.373,25.881-8.366,38.752c-0.484,2.081-0.022,2.51,1.76,2.82
					c7.996,1.387,15.951,2.984,23.857,4.822c0.277,0.064,0.589-0.018,1.011-0.038c1.174-4.206,2.134-8.408,2.934-12.654
					c2.447-12.99,5.372-25.881,8.362-38.753c0.483-2.081,0.023-2.516-1.76-2.822c-4.111-0.706-8.211-1.487-12.3-2.317
					c-4.079-0.827-8.138-1.75-12.491-2.693C163.094-136.476,162.157-132.268,161.354-128.023z M154.096-88.236
					c3.715-17.153,7.388-34.118,11.124-51.368c8.217,1.45,16.27,3.459,24.547,5.454c-3.717,17.166-7.402,34.181-11.139,51.439
					C170.285-84.308,162.252-86.169,154.096-88.236z"/>
				<path style="fill:#FFFFFF;" d="M166.007-81.86c-1.589-0.409-2.946-0.024-3.661,1.585c-0.652,1.468,0.338,3.37,1.996,3.85
					c1.764,0.511,2.74-0.512,3.412-1.775C168.285-79.729,167.427-81.495,166.007-81.86z M164.88-77.692
					c-0.933-0.338-1.564-1.037-1.223-2.111c0.255-0.805,0.979-1.302,1.778-1.043c0.951,0.308,1.342,1.151,1.221,2.126
					C166.33-77.829,165.737-77.382,164.88-77.692z"/>
				<path style="fill:#FFFFFF;" d="M167.683-103.699c5.253,2.914,10.677,1.449,13.065-3.377c1.658-3.35,1.577-6.725,0.434-10.097
					c-1.79-5.284-7.961-9.81-14.575-4.677c-2.345,1.82-3.176,4.254-4.164,8.079C161.542-109.983,163.214-106.178,167.683-103.699z
					 M174.935-122.059c3.622,1.445,5.174,4.339,5.624,8.072c0.46,3.818-0.482,7.036-3.585,9.439
					c-0.526,0.408-1.232,0.644-1.893,0.808c-6.535,1.619-12.368-4.688-10.685-11.529
					C165.735-120.713,170.519-123.821,174.935-122.059z"/>
				<path style="fill:#FFFFFF;" d="M173.701-110.387c0.54-0.295,1.301-0.547,1.069-1.286c-0.7-2.233-1.795-4.257-3.63-6.587
					c-1.219,3.225-1.85,5.853-2.235,8.708C170.839-109.428,172.32-109.632,173.701-110.387z M171.409-114.27
					c1.134,0.452,1.257,1.496,1.798,2.351c-0.696,0.715-1.463,1.044-2.547,1.107C170.919-112.008,171.151-113.077,171.409-114.27z"
					/>
			</g>
		</g>
		<g>
			<g>
				<path style="fill:#FFFFFF;" d="M17.269-42.33c-0.249,0.92-0.898,0.971-1.497,0.938c-3.804-0.211-7.495,0.632-11.219,1.162
					c-1.233,0.176-2.457,0.144-3.671-0.085c-0.473-0.089-0.865-0.395-0.881-0.928c-0.016-0.53,0.315-0.923,0.829-0.907
					c5.337,0.168,10.581-2.494,15.972-0.523C16.933-42.624,17.038-42.502,17.269-42.33z"/>
				<path style="fill:#FFFFFF;" d="M2.917-37.04c5.268-0.359,10.523-0.123,15.763,0.889C13.397-34.5,8.136-35.214,2.875-35.869
					C2.889-36.259,2.903-36.649,2.917-37.04z"/>
				<path style="fill:#FFFFFF;" d="M3.042-31.661c0.562-0.827,1.266-0.494,1.881-0.285c3.502,1.19,7.073,2.078,10.743,2.557
					c0.618,0.081,1.32,0.163,1.372,0.949c0.055,0.843-0.626,0.989-1.268,0.947c-4.424-0.288-8.658-1.263-12.493-3.595
					C3.132-31.177,3.113-31.477,3.042-31.661z"/>
			</g>
		</g>
		<g>
			<g>
				<path style="fill:#FFFFFF;" d="M300.694-280.51c-0.76,3.241-2.133,4.155-5.484,3.88c-4.04-0.332-7.997-1.051-11.659-2.808
					c-2.959-1.419-6.043-2.362-9.212-3.088c-1.115-0.255-1.829-0.694-2.377-1.847c-1.331-2.8-5.981-4.444-8.611-3.232
					c-1.156,0.533-2.191,1.277-2.365,2.648c-0.189,1.499,0.714,2.543,1.888,3.211c2.438,1.387,5.005,2.117,7.717,0.696
					c0.57-0.299,1.089-0.49,1.752-0.267c3.001,1.012,6.134,1.549,9.106,2.711c3.449,1.348,6.929,2.614,10.649,3.15
					c7.527,1.083,8.051,0.847,10.884-6.11c0.28-0.687,0.385-1.354,1.468-1.455c2.466-0.23,6.628-3.061,7.838-5.217
					c2.778-4.953,4.381-10.381,6.149-15.73c0.448-1.357,1.012-3.007,0.116-4.285c-1.495-2.132-0.332-5.118-2.45-6.995
					c-0.16-0.142,0.025-0.736,0.123-1.1c1.015-3.771,1.243-7.652,1.118-11.499c-0.237-7.33-2.926-13.711-8.424-18.69
					c-5.805-5.258-12.451-9.08-20.001-11.321c-6.556-1.946-13.266-2.458-19.952-1.486c-8.207,1.194-14.098,6.047-18.709,12.838
					c-2.008,2.958-2.771,7.112-7.036,8.264c-0.908,0.245-0.943,1.812-2.1,2.006c-1.75,0.295-2.527,1.594-3.269,2.999
					c-2.149,4.072-2.836,8.665-4.626,12.859c-1.66,3.889-0.585,7.618,0.52,11.359c0.258,0.874,0.957,1.448,1.689,1.841
					c1.152,0.619,2.369,1.152,3.611,1.563c4.263,1.41,7.002,0.232,8.457-3.994c2.237-6.5,4.228-13.085,6.311-19.637
					c0.394-1.24,0.072-2.367-0.376-3.582c-0.646-1.753-1.592-3.878-0.617-5.493c4.682-7.754,11.489-12.924,20.575-13.877
					c8.202-0.86,15.693,2.108,23.072,5.679c10.382,5.025,15.073,17.824,13.815,27.692c-0.127,0.995-0.636,1.555-1.22,2.302
					c-1.494,1.913-4.46,2.169-5.293,4.633c-2.303,6.814-5.662,13.221-7.682,20.138c-0.416,1.426-0.223,2.674,0.286,4.182
					c0.841,2.49,2.875,2.944,5.061,4.006C300.796-282.514,300.922-281.482,300.694-280.51z M248.279-339.548
					c0.401-2.321,1.958-3.895,3.092-5.685c2.912-4.6,6.736-8.209,11.638-10.644c3.087-1.533,6.319-2.255,9.787-2.353
					c6.649-0.188,13.033,0.727,19.295,3.103c7.922,3.006,14.704,7.481,19.741,14.325c2.184,2.968,2.905,6.607,3.66,10.168
					c0.686,3.234,0.082,11.762-1.059,14.178c-0.982-0.024-1.928-0.234-2.963-0.811c0.618-4.114,0.731-8.241-0.265-12.361
					c-1.688-6.984-5.283-12.578-11.366-16.561c-6.533-4.279-13.63-6.875-21.411-7.511c-11.498-0.939-19.922,4.153-26.144,13.478
					c-0.299,0.448-0.542,0.934-0.831,1.39c-0.078,0.124-0.227,0.204-0.55,0.481C250.016-338.756,249.189-339.133,248.279-339.548z
					 M242.91-307.945c-0.513,1.586-1.425,1.915-2.781,1.43c-1.231-0.441-2.426-1.004-3.591-1.602
					c-1.234-0.634-1.751-1.634-1.424-3.074c1.936-8.539,4.594-16.829,8.228-24.812c0.95-2.088,3.849-2.259,5.631-1.538
					c2.593,1.049,3.009,2,2.105,4.697c-1.376,4.104-2.852,8.175-4.286,12.26c0.153,0.053,0.305,0.107,0.458,0.161
					C245.792-316.268,244.265-312.134,242.91-307.945z M307.967-312.582c1.069-2.946,2.061-3.435,4.871-2.598
					c2.431,0.724,3.683,2.696,3.101,5.1c-2.01,8.296-5.111,16.193-8.807,23.87c-0.551,1.144-1.296,1.987-2.654,1.805
					c-2.06-0.277-4.206-0.448-5.751-2.086c-0.479-0.508-0.011-1.181,0.187-1.748c1.45-4.159,2.913-8.313,4.371-12.469
					c0.15,0.053,0.299,0.105,0.449,0.158C305.14-304.561,306.517-308.585,307.967-312.582z M240.147-333.768
					c-1.856,6.384-4.282,12.583-6.05,18.974C234.868-321.54,237.434-327.677,240.147-333.768z M317.16-306.742
					c-1.649,6.488-3.515,12.894-7.122,18.652C312.613-294.233,314.695-300.559,317.16-306.742z"/>
			</g>
			<g>
				<path style="fill:#FFFFFF;" d="M204.75-287.561c1.671-0.883,1.975-1.974,0.692-3.632c-2.152-2.781-4.062-5.75-6.773-8.342
					c1.491-1.211,2.816-2.266,4.116-3.35c1.588-1.323,1.567-2.87,0.145-4.163c-4.036-3.671-8.129-7.28-13.023-9.837
					c-2.074-1.083-3.17-0.593-3.574,1.729c-1.128,6.484-1.248,13.062-1.862,19.593c-0.182,1.938,0.92,2.493,2.728,1.796
					c1.373-0.529,2.592-1.574,4.355-1.374c0.929,2.411,0.407,5.003,0.889,7.456c0.475,2.418,0.189,5.01,1.915,7.923
					C197.205-283.757,201.02-285.59,204.75-287.561z M202.318-305.243c-1.342,1.048-2.507,1.926-3.639,2.847
					c-2.869,2.335-2.93,2.799-0.508,5.531c2.061,2.325,4.196,4.586,6.475,7.068c-3.261,2.079-6.293,4.012-9.66,6.159
					c-0.562-5.035-0.43-9.791-1.842-14.57c-2.115,0.602-4.115,1.171-6.413,1.824c0.655-6.195,1.287-12.174,1.993-18.853
					C193.449-311.764,197.719-308.625,202.318-305.243z"/>
			</g>
			<g>
				<path style="fill:#FFFFFF;" d="M53.545-355.807c-5.511-0.685-7.564,0.723-8.231,6.291c-1.811,15.121-2.8,30.336-5.391,45.371
					c-0.824,4.782,0.426,6.032,5.252,6.505c23.715,2.324,47.348,5.342,70.981,8.364c5.155,0.659,7.306-0.822,7.939-5.951
					c0.688-5.579,1.358-11.172,1.717-16.779c0.642-10.025,2.745-19.849,3.841-29.805c0.505-4.591-0.085-5.288-4.513-5.606
					c-11.839-0.85-23.566-2.7-35.347-4.047C77.709-352.905,65.621-354.306,53.545-355.807z M125.105-345.125
					c2.151,0.245,2.533,1.032,2.374,3.159c-1.158,15.406-3.618,30.648-5.551,45.956c-0.574,4.549-0.918,5.105-5.611,4.58
					c-18.695-2.091-37.376-4.307-56.058-6.513c-5.474-0.647-10.926-1.492-16.406-2.089c-1.85-0.202-2.044-0.995-1.923-2.615
					c1.193-15.913,3.813-31.652,5.681-47.482c0.336-2.845,1.621-3.991,4.423-3.652c11.468,1.386,22.94,2.745,34.41,4.113
					c0.001-0.011,0.003-0.022,0.004-0.033C99.332-348.165,112.212-346.592,125.105-345.125z"/>
			</g>
		</g>
	</g>
</pattern>
<g>
	<rect style="fill:#F16542;" width="1000" height="400"/>
	<pattern  id="SVGID_1_" xlink:href="#Video_Lecture" patternTransform="matrix(1 0 0 1 1299.7314 824.918)">
	</pattern>
	<rect style="opacity:0.25;fill:url(#SVGID_1_);" width="1000" height="400"/>
	<g>
		<ellipse style="fill:#D8583F;" cx="870.52" cy="374.039" rx="122.994" ry="10.499"/>
		<g>
			<polygon points="838.326,216.393 848.632,216.393 845.885,245.9 862.182,248.347 862.182,250.402 827.857,250.402 
				827.857,248.347 834.889,245.9 			"/>
			<path d="M878.33,235.12c0.181,1.978-1.265,3.585-3.234,3.585h-62.383c-1.979,0-3.726-1.607-3.907-3.585l-3.706-39.939
				c-0.04-0.412-0.01-0.803,0.08-1.165c0.351-1.406,1.586-2.42,3.153-2.42h62.383c1.979,0,3.726,1.607,3.907,3.585L878.33,235.12z"
				/>
			<path style="fill:#007CFF;" d="M812.714,236.697c-0.946,0-1.82-0.806-1.907-1.759l-3.706-39.941
				c-0.018-0.183-0.008-0.345,0.029-0.491c0.139-0.557,0.6-0.901,1.205-0.901h62.384c0.946,0,1.819,0.806,1.906,1.76l3.706,39.941
				c0.036,0.393-0.074,0.753-0.308,1.01c-0.159,0.174-0.449,0.382-0.926,0.382H812.714z"/>
			<path style="fill:#FFFFFF;" d="M812.714,236.697c-0.946,0-1.82-0.806-1.907-1.759l-3.706-39.941
				c-0.018-0.183-0.008-0.345,0.029-0.491c0.139-0.557,0.6-0.901,1.205-0.901h62.384c0.946,0,1.819,0.806,1.906,1.76l3.706,39.941
				c0.036,0.393-0.074,0.753-0.308,1.01c-0.159,0.174-0.449,0.382-0.926,0.382H812.714z"/>
			<path d="M856.068,226.121c0,0,1.269-22.324-4.23-27.422c-5.499-5.098-12.916-3.625-16.822-0.897
				c-3.906,2.727-8.242,9.813-4.329,30.858L856.068,226.121z"/>
			<g>
				<path style="fill:#007CFF;" d="M830.809,236.697c-0.011-0.035-0.02-0.066-0.031-0.101c-0.476-1.527-1.002-3.166-1.59-4.931
					c-0.441-1.338-0.918-2.76-1.443-4.258c3.145-1.002,6.345-1.779,9.595-2.318c3.425-0.609,6.899-0.974,10.38-1.093
					c4.496-0.035,9.665,0.469,9.665,0.469s0.735,0.175,1.198,4.945c0.161,1.715,0.32,4.096,0.405,7.287H830.809z"/>
				<path style="fill:#007CFF;" d="M830.809,236.697c-0.011-0.035-0.02-0.066-0.031-0.101c-0.476-1.527-1.002-3.166-1.59-4.931
					c-0.441-1.338-0.918-2.76-1.443-4.258c3.145-1.002,6.345-1.779,9.595-2.318c3.425-0.609,6.899-0.974,10.38-1.093
					c4.496-0.035,9.665,0.469,9.665,0.469s0.735,0.175,1.198,4.945c0.145,1.542,0.276,4.027,0.347,7.287H830.809z"/>
			</g>
			<g>
				<path style="fill:#F16542;" d="M830.809,236.697c-0.011-0.035-0.02-0.066-0.031-0.101c-0.476-1.527-1.002-3.166-1.59-4.931
					c-0.441-1.338-0.918-2.76-1.443-4.258c3.145-1.002,6.345-1.779,9.595-2.318c3.425-0.609,6.899-0.974,10.38-1.093
					c4.496-0.035,9.665,0.469,9.665,0.469s0.735,0.175,1.198,4.945c0.161,1.715,0.32,4.096,0.405,7.287H830.809z"/>
				<path style="fill:#F16542;" d="M830.809,236.697c-0.011-0.035-0.02-0.066-0.031-0.101c-0.476-1.527-1.002-3.166-1.59-4.931
					c-0.441-1.338-0.918-2.76-1.443-4.258c3.145-1.002,6.345-1.779,9.595-2.318c3.425-0.609,6.899-0.974,10.38-1.093
					c4.496-0.035,9.665,0.469,9.665,0.469s0.735,0.175,1.198,4.945c0.145,1.542,0.276,4.027,0.347,7.287H830.809z"/>
			</g>
			<path style="fill:#373C40;" d="M857.867,236.697L857.867,236.697l0.401-6.625l0.345-5.606c1.379,0.266,5.041,6.552,8.096,12.23
				H857.867z"/>
			<path style="opacity:0.2;enable-background:new    ;" d="M857.867,236.697L857.867,236.697l0.401-6.625
				c0.808,0.948,2.669,3.33,4.078,6.625H857.867z"/>
			<path style="fill:#373C40;" d="M823.766,236.697c2.454-7.17,3.973-9.29,3.973-9.29l3.296,9.29H823.766z"/>
			<path style="fill:#FCC1BB;" d="M845.813,229.101c-5.697-0.729-7.41-3.163-7.41-3.163c3.615-3.411,0.612-9.321,0.612-9.321
				l6.858,1.28c-0.18,1.133-0.257,2.084-0.268,2.887c-0.052,4.162,1.83,4.203,1.83,4.203
				C848.638,227.242,845.813,229.101,845.813,229.101z"/>
			<path style="opacity:0.2;enable-background:new    ;" d="M845.872,217.897c-0.18,1.133-0.257,2.084-0.268,2.887
				c-4.632,0-6.59-4.168-6.59-4.168L845.872,217.897z"/>
			<path style="fill:#FCC1BB;" d="M842.081,198.722c5.961-0.327,8.055,2.76,8.828,8.879c0.966,7.647-0.437,13.195-7.981,11.963
				C832.684,217.892,832.181,199.264,842.081,198.722z"/>
			<path d="M836.117,209.126c0,0,2.519-5.051,1.89-8.809c0,0,11.549-5.473,12.789,6.486c0,0,0.571-10.71-9.69-10.386
				c-10.244,0.324-9.396,15.314-3.859,19.491C837.246,215.908,834.56,212.284,836.117,209.126z"/>
			<path style="fill:#FCC1BB;" d="M837.159,210.331c-0.092-0.958-1.172-2.528-2.946-2.235c-1.836,0.303-2.509,4.143,2.136,4.804
				C837.016,212.994,837.352,212.329,837.159,210.331z"/>
			<path style="fill:#FCC1BB;" d="M833.12,226.57c0,0,6.69,5.428,12.917,5.34c6.228-0.088,8.417-7.091,8.417-7.091
				S844.795,221.959,833.12,226.57z"/>
			<path style="fill:#373C40;" d="M829.831,236.697c-0.603-3.227-1.296-6.407-2.085-9.29l5.944-1.858c0,0,2.538,4.555,3.891,11.148
				H829.831z"/>
			<path style="fill:#373C40;" d="M854.604,236.697c-0.712-5.869-0.762-12.703-0.762-12.703l4.77,0.471
				c1.177,3.196,1.803,7.633,2.107,12.232H854.604z"/>
			<path d="M844.601,197.356c5.882,0.547,7.079,5.975,7.079,5.975c-1.65-1.113-3.771-1.347-5.803-1.195
				c-0.501-1.1-1.276-2.163-1.276-2.163c0.349,0.568,0.568,1.459,0.7,2.216c-1.148,0.126-2.248,0.362-3.199,0.619
				c-0.443-0.916-1.103-1.634-1.103-1.634c0.245,0.588,0.335,1.278,0.365,1.845c-1.412,0.427-2.349,0.841-2.349,0.841
				c-0.186-1.904-1.801-4.124-1.801-4.124S838.719,196.808,844.601,197.356z"/>
			<path style="fill:none;stroke:#007CFF;stroke-miterlimit:10;" d="M835.111,210.425"/>
			<path style="fill:#007CFF;" d="M836.06,211.987c0.02-0.026,0.039-0.054,0.056-0.082c0.171-0.281,0.209-0.626,0.169-0.953
				c-0.085-0.7-1.127-2.415-1.938-1.418c-0.201,0.247-0.252,0.583-0.242,0.901c0.015,0.435,0.135,0.866,0.346,1.246
				c0.182,0.328,0.471,0.639,0.845,0.674C835.591,212.383,835.88,212.223,836.06,211.987z"/>
			<path d="M836.06,211.987c0.02-0.026,0.039-0.054,0.056-0.082c0.171-0.281,0.209-0.626,0.169-0.953
				c-0.085-0.7-1.127-2.415-1.938-1.418c-0.201,0.247-0.252,0.583-0.242,0.901c0.015,0.435,0.135,0.866,0.346,1.246
				c0.182,0.328,0.471,0.639,0.845,0.674C835.591,212.383,835.88,212.223,836.06,211.987z"/>
			<path style="fill:#373C40;" d="M835.962,210.883c0,0-0.714-1.507-1.19-1.229c-0.476,0.278-0.294,1.626,0.17,1.864
				s0.623,0.754,0.623,0.754s1.983,2.411,2.498,2.157v-0.675C838.063,213.754,836.477,212.588,835.962,210.883z"/>
			<g>
				<polygon style="fill:#1A2E35;" points="848.585,379.046 843.672,379.046 834.845,256.145 841.362,256.145 				"/>
				<polygon style="opacity:0.4;fill:#FFFFFF;enable-background:new    ;" points="848.588,379.046 843.672,379.046 835.275,262.25 
					834.842,256.343 841.362,256.343 841.715,262.25 				"/>
				<polygon style="opacity:0.2;enable-background:new    ;" points="841.715,261.957 835.275,261.957 834.842,256.343 
					841.362,256.343 				"/>
			</g>
			<g>
				<polygon style="fill:#1A2E35;" points="884.641,379.046 879.728,379.046 878.926,256.145 885.443,256.145 				"/>
				<polygon style="opacity:0.5;fill:#FFFFFF;enable-background:new    ;" points="885.447,256.343 885.318,276.172 
					884.645,379.046 879.729,379.046 879.055,276.172 878.927,256.343 				"/>
				<polygon style="opacity:0.2;enable-background:new    ;" points="885.447,256.343 885.318,276.392 879.055,276.392 
					878.927,256.343 				"/>
			</g>
			<g>
				<polygon style="fill:#1A2E35;" points="936.802,379.046 931.889,379.046 923.062,256.145 929.58,256.145 				"/>
				<polygon style="opacity:0.5;fill:#FFFFFF;enable-background:new    ;" points="936.805,379.046 931.889,379.046 923.493,262.25 
					923.06,256.343 929.58,256.343 929.933,262.25 				"/>
				<polygon style="opacity:0.2;enable-background:new    ;" points="929.933,261.957 923.493,261.957 923.06,256.343 
					929.58,256.343 				"/>
			</g>
			<g>
				<polygon style="fill:#1A2E35;" points="792.381,379.046 787.468,379.046 794.69,256.145 801.208,256.145 				"/>
				<polygon style="opacity:0.5;fill:#FFFFFF;enable-background:new    ;" points="801.207,256.343 800.774,262.25 792.377,379.046 
					787.469,379.046 794.334,262.25 794.687,256.343 				"/>
				<polygon style="opacity:0.2;enable-background:new    ;" points="794.687,256.343 801.207,256.343 800.774,261.957 
					794.334,261.957 				"/>
			</g>
			<g>
				<path style="fill:#373C40;" d="M933.013,259.223H791.258c-0.958,0-1.734-0.776-1.734-1.734v-4.422h145.223v4.422
					C934.747,258.447,933.97,259.223,933.013,259.223z"/>
				<path style="opacity:0.6;fill:#373C40;enable-background:new    ;" d="M933.013,259.223H791.258
					c-0.958,0-1.734-0.776-1.734-1.734v-4.422h145.223v4.422C934.747,258.447,933.97,259.223,933.013,259.223z"/>
			</g>
			<rect x="789.524" y="253.067" style="opacity:0.2;enable-background:new    ;" width="145.223" height="3.078"/>
			<g>
				<path style="fill:#373C40;" d="M937.792,253.87H786.478c-0.958,0-1.734-0.776-1.734-1.734l0,0c0-0.958,0.776-1.734,1.734-1.734
					h151.314c0.958,0,1.734,0.776,1.734,1.734l0,0C939.526,253.093,938.75,253.87,937.792,253.87z"/>
				<path style="opacity:0.6;fill:#373C40;enable-background:new    ;" d="M937.792,253.87H786.478
					c-0.958,0-1.734-0.776-1.734-1.734l0,0c0-0.958,0.776-1.734,1.734-1.734h151.314c0.958,0,1.734,0.776,1.734,1.734l0,0
					C939.526,253.093,938.75,253.87,937.792,253.87z"/>
			</g>
			<g>
				<polygon style="fill:#1A2E35;" points="848.531,250.402 849.323,247.411 881.844,247.411 896.82,248.906 897.39,250.402 				"/>
				<polygon style="opacity:0.4;enable-background:new    ;" points="881.844,247.411 881.844,250.402 848.531,250.402 
					849.323,247.411 				"/>
			</g>
			<path style="fill:#1A2E35;" d="M788.487,246.035c0,2.871,0.802,4.363,0.802,4.363h34.477v-0.818h-0.698v-7.097h0.698v-0.818
				h-34.477C789.289,241.665,788.487,243.204,788.487,246.035z"/>
			<path d="M788.487,246.035c0,2.871,0.802,4.363,0.802,4.363h34.477v-0.818h-0.698v-7.097h0.698v-0.818h-34.477
				C789.289,241.665,788.487,243.204,788.487,246.035z"/>
			<path style="opacity:0.2;enable-background:new    ;" d="M806.933,246.035c0,2.871,0.802,4.363,0.802,4.363h16.032v-0.818h-0.698
				v-7.097h0.698v-0.818h-16.032C807.735,241.665,806.933,243.204,806.933,246.035z"/>
			<path style="fill:#FFFFFF;" d="M808.633,246.035c0,2.334,0.65,3.545,0.65,3.545h13.786v-7.097h-13.786
				C809.283,242.483,808.633,243.734,808.633,246.035z"/>
			<path style="opacity:0.6;fill:#FFFFFF;enable-background:new    ;" d="M794.101,246.035c0,2.871,0.802,4.363,0.802,4.363h6.416
				c0,0-0.802-1.492-0.802-4.363c0-2.831,0.802-4.371,0.802-4.371h-6.416C794.903,241.665,794.101,243.204,794.101,246.035z"/>
			<path style="fill:#373C40;" d="M785.415,237.302c0,2.871,0.802,4.363,0.802,4.363h34.477v-0.818h-0.698v-7.098h0.698v-0.818
				h-34.477C786.217,232.931,785.415,234.471,785.415,237.302z"/>
			<path style="opacity:0.2;enable-background:new    ;" d="M803.86,237.302c0,2.871,0.802,4.363,0.802,4.363h16.031v-0.818h-0.698
				v-7.098h0.698v-0.818h-16.031C804.662,232.931,803.86,234.471,803.86,237.302z"/>
			<path style="fill:#FFFFFF;" d="M805.56,237.302c0,2.334,0.65,3.545,0.65,3.545h13.786v-7.098H806.21
				C806.21,233.749,805.56,235,805.56,237.302z"/>
			<path style="opacity:0.2;enable-background:new    ;" d="M791.029,237.302c0,2.871,0.802,4.363,0.802,4.363h6.416
				c0,0-0.802-1.492-0.802-4.363c0-2.831,0.802-4.371,0.802-4.371h-6.416C791.831,232.931,791.029,234.471,791.029,237.302z"/>
			<path style="fill:#FFFFFF;" d="M846.626,236.627l9.896,9.169l-1.375,1.112l-9.58-9.156c-0.314-0.3-0.319-0.799-0.011-1.106l0,0
				C845.849,236.353,846.322,236.345,846.626,236.627z"/>
			<path style="fill:#FD897B;" d="M860.553,244.079l-5.816-2.649c0,0-4.865-0.907-6.874-0.454c-2.009,0.454-6.451,6.487-6.345,7.227
				c0.106,0.74,7.7,2.538,7.869,2.538c0.169,0,3.463-1.867,3.463-1.867l5.377,1.867L860.553,244.079z"/>
			<polygon style="fill:#FCB373;" points="910.912,370.849 904.524,369.972 903.638,354.786 910.018,355.669 			"/>
			<polygon style="opacity:0.2;enable-background:new    ;" points="910.018,355.669 903.637,354.794 904.145,363.474 
				910.517,364.033 			"/>
			<path style="fill:#373C40;" d="M910.655,281.574l1.559-9.765l35.816-2.142c0,0,3.808,20.32,0.882,25.733
				c-5.224,9.664-33.377,4.787-41.615,5.737c4.924,20.138,4.443,59.491,4.443,59.491l-11.765,0.898c0,0-9.053-42.405-10.883-62.554
				C887.858,285.375,899.124,285.714,910.655,281.574z"/>
			<polygon style="fill:#007CFF;" points="913.121,361.181 898.982,362.112 897.771,356.057 913.305,355.335 			"/>
			<polygon points="913.121,361.181 898.982,362.112 897.771,356.057 913.305,355.335 			"/>
			<path style="fill:#FFFFFF;" d="M904.042,369.202l7.218-0.45c0.251-0.027,0.476,0.154,0.503,0.405c0,0.003,0,0.005,0.001,0.007
				l0.708,5.694c0.039,0.622-0.43,1.16-1.052,1.207c-2.521,0.116-3.73,0.046-6.908,0.219c-1.95,0.116-5.792,0.531-8.482,0.271
				c-2.69-0.26-2.361-2.913-1.199-3.039c2.755-0.314,6.404-2.338,8.128-3.874C903.261,369.379,903.642,369.224,904.042,369.202z"/>
			<polygon style="fill:#FCB373;" points="896.174,370.791 889.743,371.264 885.714,356.596 892.138,356.131 			"/>
			<g>
				<path style="fill:#FFFFFF;" d="M888.873,371.484c0-0.007-0.107-0.011-0.108-0.019l-0.116-0.006c0-0.001,0-0.001,0-0.001
					c0-0.001,0.113-0.002,0.113-0.002c-0.023-0.096-0.327-1.896-1.107-2.325c-0.21-0.108-0.428-0.118-0.646-0.028
					c-0.252,0.079-0.404,0.32-0.389,0.584c0.028,0.402,0.459,0.905,0.95,1.305c-0.674-0.143-1.438-0.223-1.803,0.049
					c-0.155,0.119-0.236,0.31-0.218,0.505c-0.024,0.309,0.134,0.604,0.403,0.758c0.405,0.15,0.851,0.143,1.251-0.02
					c0.547-0.167,1.075-0.394,1.573-0.675c0.019,0.003,0.038,0.002,0.055-0.007c0.013-0.013,0.01-0.033,0.018-0.05
					C888.864,371.531,888.871,371.509,888.873,371.484z M886.943,369.689c-0.011-0.088,0.015-0.204,0.215-0.286l0.069-0.025
					c0.117-0.034,0.242-0.017,0.345,0.045c0.467,0.25,0.792,1.222,0.942,1.814c-0.045-0.014-0.091-0.028-0.144-0.044
					C887.736,370.845,886.997,370.123,886.943,369.689z M886.099,372.042c-0.162-0.107-0.256-0.292-0.247-0.486
					c-0.011-0.096,0.029-0.19,0.106-0.248c0.362-0.272,1.539-0.04,2.388,0.217C887.297,372.053,886.472,372.246,886.099,372.042z"/>
			</g>
			<polygon style="opacity:0.2;enable-background:new    ;" points="892.138,356.131 885.715,356.604 888.02,364.988 
				894.368,364.208 			"/>
			<path style="fill:#373C40;" d="M883.536,363.953l11.324-3.328c0,0-6.761-38.158-13.618-51.391
				c0.513-0.168,1.195-0.385,2.037-0.634c1.516-0.457,3.529-1.027,5.895-1.684c16.456-4.563,49.811-13.12,49.811-13.12
				l-15.238-14.219c0,0-60.694,9.255-61.953,25.246C861.193,312.514,883.536,363.953,883.536,363.953z"/>
			<polygon style="fill:#007CFF;" points="896.321,360.876 882.686,364.731 880.24,359.061 895.283,355.119 			"/>
			<polygon points="896.321,360.876 882.686,364.731 880.24,359.061 895.283,355.119 			"/>
			<path style="fill:#FFFFFF;" d="M889.112,370.612l6.966-1.944c0.24-0.079,0.498,0.052,0.577,0.292
				c0.001,0.002,0.002,0.005,0.002,0.007l1.879,5.422c0.168,0.601-0.179,1.224-0.778,1.399c-2.442,0.639-3.639,0.822-6.711,1.653
				c-1.883,0.52-5.554,1.726-8.24,2.031c-2.686,0.306-2.916-2.357-1.806-2.723c2.629-0.881,5.776-3.621,7.142-5.482
				C888.385,370.948,888.725,370.717,889.112,370.612z"/>
			<g>
				<path style="fill:#007CFF;" d="M903.887,369.983c0,0,0-0.001,0-0.002c0-0.002,0-0.003,0-0.005c0-0.112-0.108-1.934-0.78-2.514
					c-0.183-0.149-0.484-0.211-0.716-0.168c-0.264,0.025-0.507,0.226-0.547,0.487c-0.057,0.399,0.237,0.979,0.634,1.473
					c-0.629-0.28-1.372-0.518-1.785-0.329c-0.176,0.084-0.301,0.254-0.323,0.448c-0.088,0.297,0.002,0.619,0.234,0.825
					c0.365,0.231,0.801,0.317,1.226,0.241c0.57-0.049,1.133-0.162,1.679-0.332c0.018,0.007,0.036,0.01,0.055,0.005
					c0.016-0.01,0.016-0.031,0.027-0.045c0.019-0.016,0.155-0.037,0.162-0.061c0.002-0.006,0.135-0.01,0.135-0.016V369.983z
					 M902.113,367.847c0.007-0.088,0.057-0.196,0.269-0.235l0.073-0.01c0.121-0.009,0.24,0.033,0.328,0.116
					c0.405,0.342,0.519,1.36,0.544,1.971c-0.041-0.023-0.083-0.047-0.132-0.074C902.648,369.143,902.076,368.283,902.113,367.847z
					 M900.797,369.973c-0.136-0.139-0.19-0.339-0.14-0.527c0.009-0.096,0.068-0.18,0.156-0.22c0.411-0.191,1.513,0.281,2.29,0.709
					C901.967,370.233,901.12,370.25,900.797,369.973z"/>
			</g>
			<path style="fill:#FD897B;" d="M884.48,206.584c0.152,0.343,0.314,0.676,0.495,0.99c1.067,1.905,2.657,3.352,4.476,4.248
				c0.476,0.238,0.971,0.438,1.476,0.6c2.666,0.848,5.619,0.59,8.057-1c1-0.638,1.924-1.514,2.695-2.629
				c3.066-4.362,2.238-8.657,1.419-16.028c-0.152-1.59-0.667-3.124-1.524-4.467c-2.981-4.743-9.247-6.162-13.981-3.181
				C880.927,189.251,881.784,200.279,884.48,206.584z"/>
			<path style="opacity:0.2;enable-background:new    ;" d="M889.451,211.822c0.476,0.238,0.971,0.438,1.476,0.6
				c2.666,0.848,5.619,0.59,8.057-1c-0.753-1.324-1.724-2.257-1.724-2.257S892.784,209.232,889.451,211.822z"/>
			<path style="fill:#FD897B;" d="M908.774,213.778c-1.264,4.763-9.434,8.585-9.434,8.585s-5.513,1.746-5.475-0.354
				c2.465-2.24,2.968-4.391,2.455-6.395c-0.3-1.167-0.95-2.277-1.757-3.332c-0.417-0.558-0.888-1.093-1.369-1.61l4.837-12.868
				C899.745,203.126,903.65,212.43,908.774,213.778z"/>
			<path d="M885.515,190.435c0,0-2.067,6.969,5.078,11.976c0,0,3.005,6.436,4.678,7.23c1.673,0.794,5.459,0.317,6.741,0
				c1.282-0.317,7.869-5.794,5.964-18.651s-12.705-8.79-12.705-8.79s-3.688-3.194-10.549,0.774
				C878.999,186.284,880.118,192.498,885.515,190.435z"/>
			<path style="fill:#FD897B;" d="M891.563,199.085c-0.167,1.662-0.844,2.977-1.881,3.655c-1.38,0.883-2.711-1.047-2.868-3.278
				c-0.126-1.98,0.418-4.889,2.071-4.797C890.537,194.757,891.749,197.033,891.563,199.085z"/>
			<path style="fill:#FFFFFF;" d="M884.635,223.083c0,0,10.14-11.356,23.683-10.185c13.543,1.171,27.118,11.636,33.867,28.083
				s8.782,41.296,8.782,41.296s-21.919,6.275-44.204,0.555C906.764,282.833,900.983,253.358,884.635,223.083z"/>
			<path style="fill:#FFFFFF;" d="M884.635,223.083c-3.421,3.553-13.196,19.84-15.98,20.45c-2.864,0.627-6.833-1.896-10.005-0.939
				c-3.173,0.957-6.43,3.843-5.695,5.692c0.735,1.85,8.187,6.787,17.431,7.054c7.916,0.229,24.596-19.482,24.596-19.482
				C894.982,228.24,884.635,223.083,884.635,223.083z"/>
			<g>
				<path style="fill:#1A2E35;" d="M884.21,209.565l0.031-0.801c-0.137-0.007-1.361-0.108-1.366-1.508
					c-0.005-1.189,2.967-3.773,4.842-5.122l-0.468-0.651c-0.531,0.381-5.183,3.786-5.176,5.776
					C882.079,209.02,883.474,209.538,884.21,209.565z"/>
			</g>
			<ellipse style="fill:#007CFF;" cx="889" cy="198.81" rx="4.321" ry="6.012"/>
			<ellipse cx="889" cy="198.81" rx="4.321" ry="6.012"/>
			<ellipse style="fill:#373C40;" cx="887.483" cy="198.81" rx="2.848" ry="3.963"/>
			<path style="fill:#373C40;" d="M886.129,195.932c0,0-0.226-17.337,12.855-14.34c0,0-9.762,1.176-10.396,14.817L886.129,195.932z"
				/>
			<g>
				<path style="fill:#1A2E35;" d="M883.796,209.706l0.67,0.116c0.221,0.038,0.431-0.11,0.469-0.331l0.064-0.372
					c0.038-0.221-0.11-0.431-0.331-0.469l-0.67-0.116c-0.221-0.038-0.431,0.11-0.469,0.331l-0.064,0.372
					C883.426,209.458,883.575,209.668,883.796,209.706z"/>
			</g>
			<path style="fill:#007CFF;" d="M903.054,298.062h53.669c2.215,0,4.01,1.795,4.01,4.01v5.365h-61.689v-5.365
				C899.044,299.857,900.839,298.062,903.054,298.062z"/>
			<path d="M903.054,298.062h53.669c2.215,0,4.01,1.795,4.01,4.01v5.365h-61.689v-5.365
				C899.044,299.857,900.839,298.062,903.054,298.062z"/>
			<g>
				<path style="fill:#007CFF;" d="M967.07,262.157h-22.05c-6.46,0-11.696-5.237-11.696-11.696v-8.623
					c0-6.46,5.237-11.696,11.696-11.696h22.05c6.459,0,11.696,5.237,11.696,11.696v8.623
					C978.766,256.92,973.529,262.157,967.07,262.157z"/>
			</g>
			<g>
				<path d="M967.07,262.157h-22.05c-6.46,0-11.696-5.237-11.696-11.696v-8.623c0-6.46,5.237-11.696,11.696-11.696h22.05
					c6.459,0,11.696,5.237,11.696,11.696v8.623C978.766,256.92,973.529,262.157,967.07,262.157z"/>
			</g>
			<path style="fill:#1A2E35;" d="M958.384,360.807l-23.107-2.271v-32.474h-9.158v32.465l-23.2,2.28
				c-2.303,0.226-4.059,2.163-4.059,4.477v3.47h30.943h1.697h30.943v-3.47C962.442,362.97,960.687,361.033,958.384,360.807z"/>
			<path style="opacity:0.6;fill:#373C40;enable-background:new    ;" d="M958.384,360.807l-23.107-2.271v-32.474h-9.158v32.465
				l-23.2,2.28c-2.303,0.226-4.059,2.163-4.059,4.477v3.47h30.943h1.697h30.943v-3.47
				C962.442,362.97,960.687,361.033,958.384,360.807z"/>
			<circle cx="901.305" cy="373.058" r="5.987"/>
			<circle cx="959.997" cy="373.058" r="5.987"/>
			<path style="fill:#1A2E35;" d="M933.539,333.042h-5.683c-1.831,0-3.315-1.484-3.315-3.315v-25.609h12.312v25.609
				C936.853,331.558,935.369,333.042,933.539,333.042z"/>
			<path style="opacity:0.3;fill:#FFFFFF;enable-background:new    ;" d="M933.539,333.042h-5.683c-1.831,0-3.315-1.484-3.315-3.315
				v-25.609h12.312v25.609C936.853,331.558,935.369,333.042,933.539,333.042z"/>
			<path style="fill:#1A2E35;" d="M952.591,253.358c0,0,1.745,43.304-10.311,50.76h13.765c0,0,10.665-14.753,7.651-50.76H952.591z"
				/>
			<path style="fill:#373C40;" d="M952.591,253.358c0,0,1.745,43.304-10.311,50.76h13.765c0,0,10.665-14.753,7.651-50.76H952.591z"
				/>
			<g>
				<path style="fill:#373C40;" d="M898.086,302.749h63.605c0.891,0,1.613,0.722,1.613,1.613v1.461c0,0.891-0.722,1.613-1.613,1.613
					h-63.605c-0.891,0-1.613-0.722-1.613-1.613v-1.461C896.473,303.471,897.195,302.749,898.086,302.749z"/>
				<path style="opacity:0.6;fill:#373C40;enable-background:new    ;" d="M898.086,302.749h63.605c0.891,0,1.613,0.722,1.613,1.613
					v1.461c0,0.891-0.722,1.613-1.613,1.613h-63.605c-0.891,0-1.613-0.722-1.613-1.613v-1.461
					C896.473,303.471,897.195,302.749,898.086,302.749z"/>
			</g>
			<path style="fill:#1A2E35;" d="M964.869,239.868h-12.458c-3.65,0-6.608,2.959-6.608,6.608v4.872c0,3.65,2.959,6.608,6.608,6.608
				h12.458c3.65,0,6.608-2.959,6.608-6.608v-4.872C971.478,242.827,968.519,239.868,964.869,239.868z"/>
			<path style="fill:#373C40;" d="M964.869,239.868h-12.458c-3.65,0-6.608,2.959-6.608,6.608v4.872c0,3.65,2.959,6.608,6.608,6.608
				h12.458c3.65,0,6.608-2.959,6.608-6.608v-4.872C971.478,242.827,968.519,239.868,964.869,239.868z"/>
			<g>
				<path style="fill:#FFFFFF;" d="M797.168,222.39c0,0,6.633-3.883,8.071-11.505c0,0-6.248,1.294-9.38,11.505"/>
				<path style="fill:#FFFFFF;" d="M794.551,222.39c0,0-6.633-3.883-8.071-11.505c0,0,6.248,1.294,9.38,11.505"/>
				<path style="fill:#FFFFFF;" d="M796.554,221.767c0,0,4.783-6.016,3.372-13.643c0,0-5.359,3.463-4.592,14.116"/>
				<path style="fill:#FFFFFF;" d="M795.009,221.79c0,0-4.639-6.128-3.048-13.72c0,0,5.276,3.589,4.256,14.221"/>
			</g>
			<rect x="788.789" y="220.844" width="14.453" height="12.087"/>
			<rect x="798.944" y="220.844" style="fill:#373C40;" width="4.299" height="12.087"/>
		</g>
	</g>
	<g>
		<ellipse style="fill:#D8583F;" cx="119.42" cy="381.49" rx="108.761" ry="9.284"/>
		<g>
			<path d="M100.343,379.996H24.4c-4.655,0-8.428-3.773-8.428-8.428V199.151c0-4.655,3.773-8.428,8.428-8.428h75.943
				c4.655,0,8.428,3.773,8.428,8.428v172.417C108.771,376.223,104.997,379.996,100.343,379.996z"/>
			<path style="fill:#F2F5FA;" d="M97.469,376.502H27.273c-4.655,0-8.428-3.773-8.428-8.428V202.264
				c0-4.655,3.773-8.428,8.428-8.428h70.196c4.655,0,8.428,3.773,8.428,8.428v165.809
				C105.897,372.728,102.124,376.502,97.469,376.502z"/>
			<path d="M40,191v4.725c0,2.41,1.968,4.275,4.378,4.275h37.518c2.41,0,5.104-1.864,5.104-4.275V191H40z M71,196c-5,0-10,0-16,0v-1
				c6,0,11,0,16,0V196z"/>
			
				<rect x="25.5" y="217.5" style="fill:none;stroke:#000000;stroke-linecap:round;stroke-linejoin:round;stroke-miterlimit:10;" width="73" height="131"/>
			<g>
				<g style="opacity:0.58;">
					<path d="M35.908,325.958c5.924-0.019,11.848-0.039,17.772-0.058c9.438-0.031,18.876-0.062,28.315-0.093
						c2.161-0.007,4.322-0.014,6.483-0.021c0.638-0.002,0.636-0.79-0.003-0.788c-5.924,0.019-11.848,0.039-17.772,0.058
						c-9.438,0.031-18.876,0.062-28.315,0.093c-2.161,0.007-4.322,0.014-6.483,0.021C35.267,325.172,35.269,325.96,35.908,325.958
						L35.908,325.958z"/>
				</g>
				<g style="opacity:0.58;">
					<path d="M36.126,322.163c5.875,0,11.749,0,17.624,0c9.359,0,18.719,0,28.078,0c2.143,0,4.286,0,6.429,0
						c0.632,0,0.633-0.788,0-0.788c-5.875,0-11.749,0-17.624,0c-9.359,0-18.719,0-28.078,0c-2.143,0-4.286,0-6.429,0
						C35.493,321.375,35.492,322.163,36.126,322.163L36.126,322.163z"/>
				</g>
				<g style="opacity:0.58;">
					<path d="M35.831,329.618c5.941,0,11.882,0,17.823,0c9.465,0,18.93,0,28.396,0c2.167,0,4.334,0,6.502,0
						c0.64,0,0.641-0.788,0-0.788c-5.941,0-11.882,0-17.823,0c-9.465,0-18.93,0-28.396,0c-2.167,0-4.334,0-6.502,0
						C35.191,328.83,35.19,329.618,35.831,329.618L35.831,329.618z"/>
				</g>
				<g style="opacity:0.58;">
					<path d="M35.548,236.991c6.005,0,12.01,0,18.014,0c9.567,0,19.134,0,28.7,0c2.19,0,4.381,0,6.571,0
						c0.646,0,0.648-0.788,0-0.788c-6.005,0-12.01,0-18.014,0c-9.567,0-19.134,0-28.7,0c-2.19,0-4.381,0-6.571,0
						C34.902,236.203,34.901,236.991,35.548,236.991L35.548,236.991z"/>
				</g>
				<g style="opacity:0.58;">
					<path d="M35.548,243.654c6.005,0,12.01,0,18.014,0c9.567,0,19.134,0,28.7,0c2.19,0,4.381,0,6.571,0
						c0.646,0,0.648-0.788,0-0.788c-6.005,0-12.01,0-18.014,0c-9.567,0-19.134,0-28.7,0c-2.19,0-4.381,0-6.571,0
						C34.902,242.866,34.901,243.654,35.548,243.654L35.548,243.654z"/>
				</g>
				<g style="opacity:0.58;">
					<path d="M35.744,240.322c15.424,0,30.849,0,46.273,0c2.207,0,4.414,0,6.621,0c0.908,0,0.909-0.788,0-0.788
						c-15.424,0-30.849,0-46.273,0c-2.207,0-4.414,0-6.621,0C34.837,239.534,34.835,240.322,35.744,240.322L35.744,240.322z"/>
				</g>
				<g style="opacity:0.58;">
					<path d="M35.744,246.986c15.424,0,30.849,0,46.273,0c2.207,0,4.414,0,6.621,0c0.908,0,0.909-0.788,0-0.788
						c-15.424,0-30.849,0-46.273,0c-2.207,0-4.414,0-6.621,0C34.837,246.198,34.835,246.986,35.744,246.986L35.744,246.986z"/>
				</g>
				<g style="opacity:0.58;">
					<path d="M35.584,279.689c5.997,0,11.993,0,17.99,0c9.554,0,19.108,0,28.662,0c2.188,0,4.375,0,6.563,0
						c0.646,0,0.647-0.788,0-0.788c-5.997,0-11.993,0-17.99,0c-9.554,0-19.108,0-28.662,0c-2.188,0-4.375,0-6.563,0
						C34.938,278.901,34.937,279.689,35.584,279.689L35.584,279.689z"/>
				</g>
				<g style="opacity:0.58;">
					<path d="M35.576,283.758c5.998,0,11.997,0,17.995,0c9.557,0,19.114,0,28.671,0c2.188,0,4.376,0,6.565,0
						c0.646,0,0.647-0.788,0-0.788c-5.998,0-11.997,0-17.995,0c-9.557,0-19.114,0-28.671,0c-2.188,0-4.376,0-6.565,0
						C34.93,282.97,34.929,283.758,35.576,283.758L35.576,283.758z"/>
				</g>
				<g style="opacity:0.58;">
					<path d="M35.77,291.314c5.955,0,11.91,0,17.864,0c9.487,0,18.974,0,28.462,0c2.172,0,4.344,0,6.517,0
						c0.641,0,0.642-0.788,0-0.788c-5.955,0-11.91,0-17.864,0c-9.487,0-18.974,0-28.462,0c-2.172,0-4.344,0-6.517,0
						C35.129,290.526,35.128,291.314,35.77,291.314L35.77,291.314z"/>
				</g>
				<g style="opacity:0.58;">
					<path d="M35.763,287.347c5.956,0,11.913,0,17.869,0c9.49,0,18.98,0,28.469,0c2.173,0,4.346,0,6.519,0
						c0.641,0,0.642-0.788,0-0.788c-5.956,0-11.913,0-17.869,0c-9.49,0-18.98,0-28.469,0c-2.173,0-4.346,0-6.519,0
						C35.121,286.559,35.12,287.347,35.763,287.347L35.763,287.347z"/>
				</g>
				<rect x="43" y="253" width="39" height="18"/>
				<rect x="45" y="297" width="35" height="18"/>
			</g>
		</g>
		<g>
			<g>
				<g>
					<path style="fill:#FFBEC6;" d="M140.673,360.382c-0.141,3.929,0.072,8.181,2.514,11.262c0.518,0.654,1.123,1.233,1.732,1.804
						c1.77,1.659,3.592,3.263,5.463,4.807c-1.991-0.565-4.111-0.104-6.179-0.145c-1.406-0.028-2.796-0.289-4.179-0.55
						c-2.227-0.42-4.455-0.84-6.682-1.26c-1.298-0.245-2.296-0.621-2.89-1.801c1.142-1.842,1.685-3.805,2.052-5.941
						c0.426-2.479-0.052-5.013-0.139-7.527c-0.076-2.199,0.15-4.409,0.67-6.548"/>
				</g>
				<g>
					
						<linearGradient id="SVGID_2_" gradientUnits="userSpaceOnUse" x1="147.9408" y1="466.4924" x2="161.0126" y2="466.4924" gradientTransform="matrix(-0.9388 0.3444 0.3444 0.9388 119.1241 -127.8944)">
						<stop  offset="0" style="stop-color:#FFFFFF;stop-opacity:0"/>
						<stop  offset="1" style="stop-color:#FF8D9C"/>
					</linearGradient>
					<path style="fill:url(#SVGID_2_);" d="M135.32,365.426c-1.086,2.298-1.566,4.848-1.382,7.338
						c0.004,0.06,0.009,0.124-0.021,0.178c-0.068,0.125-0.252,0.115-0.392,0.087c-0.342-0.069-0.684-0.139-1.026-0.208
						c-0.463-0.094-0.943-0.201-1.339-0.433c0.615-1.22,1.118-2.489,1.349-3.831c0.426-2.48-0.052-5.013-0.139-7.527
						c-0.076-2.2,0.15-4.409,0.67-6.548l7.638,5.899c-0.033,0.911-0.042,1.839-0.013,2.766c-1.056,0.091-2.153-0.333-3.176-0.019
						C136.441,363.45,135.779,364.455,135.32,365.426z"/>
				</g>
			</g>
			<g>
				<path d="M131.951,370.607c3.01,2.458,7.265,2.801,10.72,1.02c0.142-0.073,0.291-0.152,0.451-0.145
					c0.189,0.008,0.349,0.133,0.498,0.251c2.775,2.205,6.048,3.672,9.158,5.372c2.705,1.478,5.307,3.146,7.78,4.985
					c0.462,0.344,0.934,0.71,1.206,1.219c0.271,0.508,0.286,1.2-0.119,1.61c-0.379,0.383-0.978,0.409-1.516,0.411
					c-1.216,0.005-2.432,0.01-3.648,0.015c-2.098,0.008-4.198,0.017-6.289-0.152c-1.524-0.123-3.039-0.34-4.553-0.558
					c-5.016-0.719-10.036-1.439-14.997-2.472c-0.592-0.123-1.259-0.307-1.53-0.847c-0.157-0.312-0.143-0.68-0.118-1.029
					C129.241,376.894,130.26,373.559,131.951,370.607"/>
			</g>
			<g>
				<path style="fill:#373C40;" d="M148.996,378.347c0.175,0.137,0.358,0.285,0.432,0.494c0.074,0.209-0.018,0.493-0.236,0.539
					c-0.136,0.029-0.277-0.044-0.371-0.146c-0.251-0.269-0.208-0.754,0.085-0.975"/>
			</g>
			<g>
				<path style="fill:#373C40;" d="M145.964,377.382c0.179,0.283,0.354,0.666,0.141,0.924c-0.136,0.165-0.389,0.194-0.59,0.12
					c-0.281-0.104-0.483-0.393-0.484-0.693c-0.001-0.3,0.199-0.59,0.479-0.696"/>
			</g>
			<g>
				<path style="fill:#373C40;" d="M142.424,375.786c0.296,0.028,0.382,0.509,0.13,0.667c-0.252,0.158-0.627-0.064-0.649-0.36
					c-0.022-0.296,0.262-0.563,0.559-0.567"/>
			</g>
			<g>
				<g>
					<path style="fill:#373C40;" d="M148.584,378.965c0.566-1.039,1.039-2.119,1.419-3.24c0.041-0.122-0.152-0.175-0.193-0.053
						c-0.374,1.104-0.84,2.168-1.398,3.192C148.35,378.977,148.523,379.078,148.584,378.965L148.584,378.965z"/>
				</g>
			</g>
			<g>
				<g>
					<path style="fill:#373C40;" d="M145.365,378.063c0.616-1.312,1.232-2.625,1.848-3.937c0.054-0.116-0.118-0.218-0.173-0.101
						c-0.616,1.312-1.232,2.625-1.848,3.937C145.138,378.078,145.31,378.179,145.365,378.063L145.365,378.063z"/>
				</g>
			</g>
			<g>
				<g>
					<path style="fill:#373C40;" d="M142.224,376.521c0.874-1.296,1.749-2.593,2.623-3.889c0.072-0.107-0.101-0.207-0.173-0.101
						c-0.874,1.296-1.749,2.593-2.623,3.889C141.979,376.528,142.152,376.628,142.224,376.521L142.224,376.521z"/>
				</g>
			</g>
			<g>
				<path style="fill:#373C40;" d="M128.993,380.287c0.029-0.392,0.103-0.778,0.152-1.167c0.158,0.349,0.368,0.673,0.677,0.902
					c0.469,0.347,1.048,0.504,1.612,0.651c7.73,2.013,15.64,3.337,23.605,3.949c1.052,0.081,2.107,0.149,3.16,0.087
					c0.556-0.033,1.146-0.117,1.573-0.475c0.538-0.451,0.682-1.246,0.535-1.933c-0.035-0.166-0.086-0.327-0.146-0.485
					c0.13,0.095,0.267,0.178,0.396,0.274c0.462,0.344,0.934,0.71,1.206,1.219c0.271,0.509,0.286,1.2-0.119,1.61
					c-0.379,0.383-0.978,0.409-1.516,0.411c-1.216,0.005-2.432,0.01-3.648,0.015c-2.098,0.008-4.198,0.017-6.289-0.152
					c-1.524-0.123-3.039-0.341-4.553-0.558c-5.016-0.719-10.036-1.439-14.997-2.472c-0.592-0.123-1.259-0.307-1.53-0.847
					C128.954,381.004,128.968,380.636,128.993,380.287z"/>
			</g>
			<g>
				<g>
					<path style="fill:#FFBEC6;" d="M145.073,359.69c-1.68,3.554-3.163,7.546-2.135,11.34c0.218,0.805,0.545,1.577,0.879,2.341
						c0.971,2.223,2.013,4.415,3.122,6.573c-1.606-1.304-3.736-1.718-5.621-2.572c-1.281-0.581-2.455-1.37-3.622-2.155
						c-1.881-1.265-3.761-2.53-5.642-3.795c-1.096-0.737-1.865-1.476-1.945-2.795c1.776-1.241,3.05-2.831,4.23-4.649
						c1.37-2.11,1.931-4.627,2.843-6.971c0.798-2.051,1.878-3.992,3.2-5.752"/>
				</g>
				<g>
					
						<linearGradient id="SVGID_3_" gradientUnits="userSpaceOnUse" x1="78.3678" y1="342.2662" x2="91.4397" y2="342.2662" gradientTransform="matrix(-0.9985 -0.054 -0.054 0.9985 241.7944 22.8296)">
						<stop  offset="0" style="stop-color:#FFFFFF;stop-opacity:0"/>
						<stop  offset="1" style="stop-color:#FF8D9C"/>
					</linearGradient>
					<path style="fill:url(#SVGID_3_);" d="M138.164,362.212c-1.904,1.683-3.352,3.837-4.166,6.197
						c-0.02,0.057-0.041,0.118-0.09,0.156c-0.112,0.088-0.277,0.006-0.395-0.075c-0.287-0.199-0.574-0.397-0.86-0.596
						c-0.388-0.269-0.787-0.557-1.059-0.927c1.046-0.878,2.01-1.846,2.751-2.988c1.37-2.11,1.931-4.627,2.843-6.971
						c0.798-2.051,1.878-3.992,3.2-5.752l4.69,8.434c-0.389,0.824-0.764,1.673-1.104,2.536c-1.006-0.333-1.847-1.156-2.911-1.271
						C139.974,360.839,138.969,361.501,138.164,362.212z"/>
				</g>
			</g>
			<g>
				<g>
					<path d="M133.025,365.643c1.796,3.447,5.57,5.441,9.447,5.168c0.16-0.011,0.328-0.025,0.472,0.045
						c0.17,0.082,0.269,0.26,0.358,0.427c1.68,3.121,4.107,5.761,6.294,8.551c1.902,2.426,3.634,4.985,5.181,7.651
						c0.289,0.499,0.578,1.021,0.627,1.596c0.049,0.574-0.211,1.216-0.745,1.433c-0.499,0.202-1.06-0.01-1.555-0.22
						c-1.119-0.475-2.238-0.951-3.358-1.426c-1.931-0.82-3.864-1.642-5.719-2.622c-1.352-0.715-2.658-1.512-3.964-2.309
						c-4.325-2.641-8.653-5.283-12.804-8.19c-0.495-0.347-1.035-0.779-1.072-1.382c-0.021-0.349,0.137-0.682,0.298-0.992
						C128.053,370.35,130.306,367.688,133.025,365.643"/>
				</g>
				<g>
					<path style="fill:#373C40;" d="M145.631,379.482c0.107,0.195,0.217,0.403,0.202,0.625c-0.015,0.222-0.211,0.446-0.429,0.402
						c-0.136-0.027-0.237-0.15-0.284-0.28c-0.124-0.346,0.106-0.775,0.463-0.862"/>
				</g>
				<g>
					<path style="fill:#373C40;" d="M143.226,377.399c0.053,0.33,0.063,0.752-0.235,0.905c-0.19,0.098-0.434,0.025-0.589-0.123
						c-0.217-0.207-0.288-0.552-0.171-0.827c0.117-0.276,0.415-0.464,0.715-0.45"/>
				</g>
				<g>
					<path style="fill:#373C40;" d="M140.603,374.535c0.261,0.143,0.15,0.618-0.144,0.664c-0.294,0.046-0.551-0.306-0.454-0.587
						c0.097-0.281,0.463-0.414,0.737-0.3"/>
				</g>
				<g>
					<g>
						<path style="fill:#373C40;" d="M145.02,379.877c0.924-0.726,1.778-1.525,2.563-2.399c0.086-0.096-0.055-0.238-0.141-0.141
							c-0.785,0.874-1.64,1.673-2.563,2.399C144.778,379.815,144.92,379.956,145.02,379.877L145.02,379.877z"/>
					</g>
				</g>
				<g>
					<g>
						<path style="fill:#373C40;" d="M142.418,377.778c1.084-0.963,2.168-1.925,3.252-2.888c0.097-0.086-0.045-0.227-0.141-0.141
							c-1.084,0.963-2.168,1.925-3.252,2.888C142.18,377.722,142.322,377.863,142.418,377.778L142.418,377.778z"/>
					</g>
				</g>
				<g>
					<g>
						<path style="fill:#373C40;" d="M140.12,375.138c1.315-0.846,2.63-1.692,3.945-2.538c0.108-0.07,0.008-0.243-0.101-0.173
							c-1.315,0.846-2.63,1.692-3.945,2.538C139.911,375.034,140.011,375.208,140.12,375.138L140.12,375.138z"/>
					</g>
				</g>
				<g>
					<path style="fill:#373C40;" d="M126.486,373.37c0.181-0.349,0.402-0.674,0.6-1.013c0.008,0.383,0.073,0.764,0.267,1.096
						c0.294,0.504,0.764,0.877,1.224,1.235c6.308,4.901,13.054,9.238,20.13,12.945c0.934,0.489,1.877,0.969,2.869,1.327
						c0.524,0.189,1.099,0.345,1.633,0.185c0.673-0.202,1.118-0.876,1.254-1.565c0.033-0.167,0.05-0.335,0.057-0.503
						c0.082,0.138,0.175,0.269,0.256,0.408c0.289,0.499,0.578,1.021,0.627,1.596c0.049,0.574-0.211,1.216-0.745,1.433
						c-0.499,0.202-1.06-0.01-1.555-0.22c-1.119-0.475-2.238-0.951-3.358-1.426c-1.931-0.82-3.864-1.642-5.719-2.622
						c-1.352-0.715-2.658-1.512-3.964-2.309c-4.325-2.641-8.653-5.283-12.804-8.19c-0.495-0.347-1.035-0.779-1.072-1.382
						C126.167,374.013,126.325,373.68,126.486,373.37z"/>
				</g>
			</g>
			<g>
				<path style="fill:#373C40;" d="M136.343,266.367c1.986,30.867,5.074,61.663,9.256,92.309c-4.659,0.874-9.371,1.458-14.102,1.75
					c-4.285-23.907-8.57-47.814-12.856-71.721c-0.783-4.37-1.567-8.74-2.35-13.109c-1.559-8.696-3.124-17.475-2.767-26.303"/>
			</g>
			<g>
				<path style="fill:#2B3033;" d="M140.756,354.175c1.448-2.254,1.297-5.402,1.078-8.242c-0.564-7.294-1.132-14.612-2.461-21.76
					c-1.255-6.745-3.18-13.292-4.354-20.058c-0.645-3.721-1.063-7.502-1.877-11.175c-2.81-12.669-10.12-23.175-14.089-35.383
					c-0.464-1.428-0.858-3.08-0.595-4.514l17.886,13.383c1.986,30.867,5.074,61.663,9.256,92.309
					c-4.406,0.826-8.862,1.385-13.335,1.691C134.292,357.419,138.703,357.371,140.756,354.175z"/>
			</g>
			<g>
				<path style="fill:#373C40;" d="M150.791,311.214c-9.772-11.331-19.229-22.934-28.358-34.791
					c-5.354-6.954-10.841-14.721-10.657-23.495l23.59,0.283c4.062,3.281,7.015,7.706,9.857,12.086
					c9.242,14.241,18.018,28.785,26.308,43.6c0.627,1.12,1.262,2.275,1.432,3.548c0.244,1.832-0.507,3.635-1.252,5.327
					c-5.149,11.696-10.802,23.17-16.924,34.388l0.082,0.04c-2.557,4.848-5.24,9.629-8.047,14.336
					c-2.762-1.377-5.43-2.939-7.994-4.655c-1.819-0.946-3.57-2.021-5.223-3.234c6.444-11.912,12.697-23.928,18.757-36.041
					c0.893-1.785,1.805-3.692,1.614-5.679C153.763,314.72,152.239,312.893,150.791,311.214z"/>
			</g>
			<g>
				<path style="fill:#2B3033;" d="M136.569,261.421c-5.062-3.926-11.818-4.045-18.072-4.795c-0.883-0.106-1.892-0.313-2.329-1.125
					c-0.437-0.812-0.049-1.893,0.634-2.49c0.231-0.202,0.492-0.352,0.762-0.483l17.572,0.211c4.062,3.28,7.015,7.706,9.857,12.086
					c7.273,11.207,14.245,22.607,20.931,34.173c-6.209-9.025-14.773-16.35-20.666-25.696
					C142.618,269.113,140.419,264.408,136.569,261.421z"/>
			</g>
			<g>
				<path style="fill:#2B3033;" d="M150.221,307.343c4.328,2.831,9.484,5.381,11.235,10.247c1.162,3.23,0.5,6.892-1.023,9.969
					c-1.522,3.077-3.833,5.681-6.117,8.244c-2.327,2.612-4.656,5.226-7.15,7.679c-1.945,1.913-3.988,3.724-5.906,5.664
					c-2.215,2.24-4.257,4.645-6.182,7.14c5.992-11.133,11.824-22.352,17.48-33.659c0.893-1.785,1.805-3.692,1.614-5.679
					c-0.213-2.207-1.736-4.034-3.185-5.713c-3.268-3.789-6.486-7.619-9.683-11.468C143.961,302.637,146.948,305.202,150.221,307.343
					z"/>
			</g>
			<g>
				<path style="fill:#FFBEC6;" d="M130.058,178.908c-1.32,1.657-2.017,3.798-1.926,5.914c0.06,1.4,0.45,2.762,0.837,4.109
					c0.317,1.102,0.633,2.204,0.95,3.306c-0.334,0.164-0.73,0.014-1.069-0.141c-4.338-1.978-8.407-4.547-12.057-7.614
					c-0.178-0.15-0.374-0.361-0.301-0.581c0.042-0.127,0.162-0.21,0.274-0.284c2.792-1.873,4.495-5.084,5.098-8.392
					c0.603-3.308,0.208-6.722-0.504-10.008"/>
			</g>
			<path style="fill:#E04A22;" d="M126.134,185.167l-0.03,0.014c-0.019-0.001-0.075-0.022-0.091-0.059
				c-0.009-0.02-0.006-0.043,0.009-0.06l0.047-0.008c-0.004-0.003-0.012-0.002-0.013-0.002l0.052-0.005
				C126.176,185.104,126.145,185.154,126.134,185.167z"/>
			<path style="fill:#E04A22;" d="M127.755,184.702c-0.027,0.026-0.067,0.026-0.094,0l-0.006-0.047
				c0.001-0.002,0.002-0.006,0.004-0.01c0.004-0.011,0.009-0.028,0.026-0.044c0.005-0.005,0.01-0.009,0.017-0.014l0.04,0.001
				c0.021,0.014,0.033,0.034,0.035,0.057C127.78,184.666,127.771,184.687,127.755,184.702z"/>
			<path style="fill:#E04A22;" d="M125.949,183.276l-0.042,0.04c-0.02-0.003-0.037-0.002-0.052-0.001
				c-0.021,0.002-0.043,0.003-0.062-0.011l0.009-0.064c0.006-0.002,0.012-0.007,0.019-0.013c0.018-0.014,0.042-0.034,0.088-0.033
				l0.035,0.033L125.949,183.276z"/>
			<path style="fill:#E04A22;" d="M128.053,184.333c0-0.001,0.002-0.005,0.004-0.014l-0.018,0.062
				c-0.027,0.006-0.05,0.002-0.067-0.01c-0.012-0.009-0.026-0.025-0.03-0.056l-0.001-0.011l0.034-0.038
				c0.011-0.001,0.016-0.004,0.026-0.013l0.06,0.027C128.064,184.307,128.057,184.323,128.053,184.333z"/>
			<g>
				
					<linearGradient id="SVGID_4_" gradientUnits="userSpaceOnUse" x1="113.6183" y1="184.1934" x2="99.8587" y2="173.3744" gradientTransform="matrix(-1 0 0 1 229.163 0)">
					<stop  offset="0" style="stop-color:#FFFFFF;stop-opacity:0"/>
					<stop  offset="1" style="stop-color:#FF8D9C"/>
				</linearGradient>
				<path style="fill:url(#SVGID_4_);" d="M128.866,180.774c-1.352-0.522-2.343-1.677-3.247-2.809
					c-1.326-1.66-2.613-3.396-3.355-5.386c-0.063-0.168-0.122-0.35-0.075-0.522c0.053-0.195,0.228-0.328,0.392-0.447
					c0.615-0.445,1.23-0.889,1.844-1.334c0.094-0.068,0.195-0.138,0.31-0.141c0.178-0.005,0.315,0.148,0.425,0.289
					c2.125,2.718,3.709,5.037,5.151,8.172"/>
			</g>
			<g>
				<path style="fill:#FFBEC6;" d="M142.926,159.268c0.605,3.314,1.179,6.891-0.283,9.926c-0.278,0.578-0.628,1.128-0.8,1.746
					c-0.448,1.611,0.387,3.271,1.195,4.735c-0.438,0.721-1.809,0.331-2.496,0.898c-0.339,0.279-0.557,0.675-0.772,1.058
					c-1.268,2.252-2.727,4.396-4.357,6.401c-0.167,0.205-0.344,0.416-0.584,0.527c-0.541,0.25-1.162-0.085-1.645-0.434
					c-4.547-3.282-7.176-8.573-9.142-13.825c-0.266-0.711-0.526-1.433-0.623-2.187c-0.102-0.793-0.022-1.598,0.104-2.388
					c0.616-3.841,2.358-7.494,4.955-10.391c0.837-0.933,1.776-1.801,2.893-2.369c1.117-0.569,2.434-0.819,3.643-0.489"/>
			</g>
			<g>
				
					<linearGradient id="SVGID_5_" gradientUnits="userSpaceOnUse" x1="97.7194" y1="162.6976" x2="84.9446" y2="182.38" gradientTransform="matrix(-1 0 0 1 229.163 0)">
					<stop  offset="0" style="stop-color:#FFFFFF;stop-opacity:0"/>
					<stop  offset="1" style="stop-color:#FF8D9C"/>
				</linearGradient>
				<path style="fill:url(#SVGID_5_);" d="M142.926,159.268c0.605,3.314,1.179,6.891-0.283,9.926
					c-0.278,0.578-0.628,1.128-0.8,1.746c-0.448,1.611,0.387,3.271,1.195,4.735c-0.438,0.721-1.809,0.331-2.496,0.898
					c-0.339,0.279-0.557,0.675-0.772,1.058c-1.268,2.252-2.727,4.396-4.357,6.401c-0.167,0.205-0.344,0.416-0.584,0.527
					c-0.541,0.25-1.162-0.085-1.645-0.434c-4.547-3.282-7.176-8.573-9.142-13.825c-0.266-0.711-0.526-1.433-0.623-2.187
					c-0.102-0.793-0.022-1.598,0.104-2.388c0.616-3.841,2.358-7.494,4.955-10.391c0.837-0.933,1.776-1.801,2.893-2.369
					c1.117-0.569,2.434-0.819,3.643-0.489"/>
			</g>
			<g>
				<path d="M117.703,164.288c0.209-0.564,0.508-1.099,0.624-1.689c0.174-0.885-0.08-1.79-0.261-2.674
					c-0.591-2.879-0.379-6.011,1.095-8.554c0.912-1.574,2.362-2.867,4.028-3.566l-0.005-0.001c0.01-0.005,0.021-0.008,0.032-0.013
					c0.017-0.007,0.034-0.013,0.05-0.02c3.836-1.788,8.482-1.193,11.985-0.253c0,0,8.645,3.984,13.552,2.127
					c0,0-0.59,2.217-2.474,3.238c0,0,2.433,1.427,5.17,0.517c0.365,0.833,0.622,1.711,0.748,2.613
					c0.338,2.438-0.328,5.035-1.939,6.896c-1.611,1.861-4.176,2.904-6.607,2.522c-1.438-0.226-2.764-0.909-4.177-1.257
					c-1.414-0.348-3.083-0.286-4.102,0.754c-0.475,0.485-0.753,1.127-1.175,1.659c-0.746,0.938-1.916,1.475-3.104,1.63
					c-1.188,0.155-1.219,0.074-2.373-0.248c-0.129-1.172-0.413-2.403-1.248-3.235c-0.835-0.832-2.372-1.044-3.151-0.159
					c-0.527,0.599-0.561,1.494-0.386,2.273c0.175,0.779,0.526,1.511,0.679,2.294c0.429,2.2-0.563,4.712-2.69,5.417
					c-1.356-1.356-3.052-2.938-3.853-4.681C117.317,168.136,117.036,166.086,117.703,164.288z"/>
				<g style="display:none;">
					<path style="display:inline;fill:#030A33;" d="M118.404,168.435c0.046,0.351,0.16,0.739,0.328,1.115
						c0.048,0.118,0.115,0.228,0.177,0.34c0.056,0.099,0.114,0.193,0.178,0.287c0.048,0.066,0.091,0.135,0.146,0.199
						c0.525,0.67,1.261,1.109,2.15,0.829c0.692-0.218,0.839-0.804,0.781-1.466c-0.092-1.059-0.441-2.08-0.469-3.147
						c-0.059-2.295,1.931-4.003,4.187-3.812c1.135,0.096,2.215,0.632,3.041,1.406c0.531,0.497,0.972,1.171,1.65,1.486
						c0.661,0.307,1.221,0.023,1.744-0.405c0.827-0.676,1.659-1.328,2.59-1.857c2.061-1.171,4.231-1.561,6.546-0.998
						c1.837,0.447,3.706,1.226,5.63,0.831c1.836-0.377,2.861-1.961,3.609-3.554c0.656-1.396,1.074-2.882,1.431-4.38
						c0.049,0.23,0.098,0.46,0.131,0.693c0.338,2.438-0.328,5.035-1.939,6.896c-1.611,1.861-4.176,2.904-6.607,2.522
						c-1.438-0.226-2.764-0.909-4.177-1.257c-1.414-0.348-3.083-0.286-4.102,0.754c-0.475,0.485-0.753,1.127-1.175,1.659
						c-0.746,0.938-1.916,1.475-3.104,1.63c-1.188,0.155-1.219,0.074-2.373-0.248c-0.129-1.172-0.413-2.403-1.248-3.235
						c-0.835-0.832-2.372-1.044-3.151-0.159c-0.527,0.599-0.561,1.494-0.386,2.273c0.175,0.779,0.526,1.511,0.679,2.294
						c0.429,2.2-0.563,4.712-2.69,5.417c-1.356-1.356-3.052-2.938-3.853-4.681c-0.801-1.743-1.083-3.793-0.415-5.591
						c0.066-0.177,0.143-0.35,0.218-0.524c0.127,0.273,0.223,0.56,0.285,0.846C118.488,165.859,118.236,167.164,118.404,168.435z"/>
				</g>
				<g style="display:none;">
					<g style="display:inline;">
						<path d="M129.963,166.883c-0.079,0-0.08-0.123,0-0.123C130.042,166.76,130.042,166.883,129.963,166.883L129.963,166.883z"/>
					</g>
					<g style="display:inline;">
						<path d="M123.452,157.831c-0.412,0.551-0.825,1.103-1.237,1.654c-0.047,0.063-0.154,0.001-0.107-0.062
							c0.412-0.551,0.825-1.103,1.237-1.654C123.392,157.705,123.5,157.767,123.452,157.831L123.452,157.831z"/>
					</g>
					<g style="display:inline;">
						<path d="M121.716,156.891c-0.261,0.436-0.522,0.871-0.783,1.307c-0.041,0.068-0.148,0.006-0.107-0.062
							c0.261-0.436,0.522-0.871,0.783-1.307C121.65,156.761,121.757,156.823,121.716,156.891L121.716,156.891z"/>
					</g>
					<g style="display:inline;">
						<path d="M121.498,153.408c-0.47,0.224-0.851,0.527-1.169,0.943c-0.048,0.062-0.155,0.001-0.107-0.062
							c0.332-0.434,0.719-0.752,1.213-0.987C121.507,153.268,121.57,153.374,121.498,153.408L121.498,153.408z"/>
					</g>
					<g style="display:inline;">
						<path d="M124.002,153.001c-0.552,0.376-1.068,0.789-1.556,1.244c-0.058,0.054-0.146-0.033-0.087-0.087
							c0.496-0.463,1.02-0.881,1.581-1.263C124.005,152.85,124.067,152.957,124.002,153.001L124.002,153.001z"/>
					</g>
					<g style="display:inline;">
						<path d="M126.834,154.324c-0.379,0.262-0.726,0.549-1.054,0.871c-0.057,0.056-0.144-0.032-0.087-0.087
							c0.336-0.33,0.692-0.624,1.079-0.891C126.837,154.172,126.899,154.279,126.834,154.324L126.834,154.324z"/>
					</g>
					<g style="display:inline;">
						<path d="M129.806,156.802c-0.63,0.34-1.239,0.71-1.831,1.112c-0.066,0.045-0.128-0.062-0.062-0.107
							c0.592-0.402,1.202-0.771,1.831-1.112C129.813,156.658,129.876,156.764,129.806,156.802L129.806,156.802z"/>
					</g>
					<g style="display:inline;">
						<path d="M132.385,158.556c-0.767,0.176-1.46,0.49-2.098,0.948c-0.065,0.046-0.126-0.061-0.062-0.107
							c0.65-0.467,1.348-0.782,2.128-0.961C132.429,158.419,132.462,158.538,132.385,158.556L132.385,158.556z"/>
					</g>
					<g style="display:inline;">
						<path d="M133.105,161.423c-0.558,0.204-1.116,0.409-1.675,0.613c-0.075,0.027-0.107-0.092-0.033-0.119
							c0.558-0.204,1.116-0.409,1.675-0.613C133.147,161.276,133.18,161.395,133.105,161.423L133.105,161.423z"/>
					</g>
					<g style="display:inline;">
						<path d="M125.292,160.14c-0.521,0.396-1.042,0.793-1.563,1.189c-0.063,0.048-0.125-0.059-0.062-0.107
							c0.521-0.396,1.042-0.793,1.563-1.189C125.293,159.985,125.354,160.093,125.292,160.14L125.292,160.14z"/>
					</g>
					<g style="display:inline;">
						<path d="M128.209,161.192c-0.437,0.258-0.874,0.516-1.312,0.775c-0.069,0.04-0.131-0.066-0.062-0.107
							c0.437-0.258,0.874-0.516,1.312-0.775C128.215,161.044,128.278,161.151,128.209,161.192L128.209,161.192z"/>
					</g>
					<g style="display:inline;">
						<path d="M121.971,163.088c-0.365,0.384-0.708,0.782-1.036,1.198c-0.049,0.062-0.136-0.025-0.087-0.087
							c0.327-0.416,0.671-0.814,1.036-1.198C121.939,162.943,122.026,163.031,121.971,163.088L121.971,163.088z"/>
					</g>
					<g style="display:inline;">
						<path d="M120.473,161.011c-0.359,0.38-0.605,0.788-0.772,1.284c-0.025,0.075-0.144,0.043-0.119-0.033
							c0.172-0.511,0.433-0.947,0.804-1.339C120.44,160.866,120.528,160.953,120.473,161.011L120.473,161.011z"/>
					</g>
					<g style="display:inline;">
						<path d="M123.716,164.561c-0.395,0.271-0.657,0.613-0.815,1.063c-0.026,0.074-0.146,0.042-0.119-0.033
							c0.171-0.484,0.448-0.846,0.872-1.137C123.72,164.409,123.781,164.516,123.716,164.561L123.716,164.561z"/>
					</g>
					<g style="display:inline;">
						<path d="M120.229,165.406c-0.128,0.649-0.255,1.297-0.383,1.946c-0.015,0.078-0.134,0.045-0.119-0.033
							c0.128-0.649,0.255-1.297,0.383-1.946C120.125,165.295,120.244,165.328,120.229,165.406L120.229,165.406z"/>
					</g>
					<g style="display:inline;">
						<path d="M121.435,168.812c-0.216,0.481-0.305,0.959-0.28,1.486c0.004,0.079-0.12,0.079-0.123,0
							c-0.026-0.549,0.071-1.046,0.297-1.548C121.361,168.677,121.467,168.74,121.435,168.812L121.435,168.812z"/>
					</g>
					<g style="display:inline;">
						<path d="M130.792,151.214c-0.333,0.505-0.785,0.806-1.381,0.912c-0.078,0.014-0.111-0.105-0.033-0.119
							c0.557-0.099,0.994-0.381,1.307-0.855C130.729,151.085,130.836,151.147,130.792,151.214L130.792,151.214z"/>
					</g>
					<g style="display:inline;">
						<path d="M138.641,157.564c-0.642,0.073-1.254,0.22-1.86,0.443c-0.075,0.027-0.107-0.092-0.033-0.119
							c0.616-0.226,1.241-0.373,1.893-0.447C138.72,157.432,138.719,157.556,138.641,157.564L138.641,157.564z"/>
					</g>
					<g style="display:inline;">
						<path d="M136.996,153.521c-0.47,0.086-0.921,0.207-1.371,0.369c-0.075,0.027-0.107-0.092-0.033-0.119
							c0.45-0.162,0.901-0.283,1.371-0.369C137.041,153.388,137.074,153.507,136.996,153.521L136.996,153.521z"/>
					</g>
					<g style="display:inline;">
						<path d="M142.633,154.766c-0.567,0.145-1.112,0.328-1.651,0.556c-0.072,0.031-0.135-0.076-0.062-0.107
							c0.547-0.232,1.105-0.421,1.681-0.569C142.677,154.627,142.71,154.746,142.633,154.766L142.633,154.766z"/>
					</g>
					<g style="display:inline;">
						<path d="M144.84,157.034c-0.867,0.53-1.748,1.035-2.642,1.516c-0.07,0.038-0.132-0.069-0.062-0.107
							c0.895-0.481,1.775-0.987,2.642-1.516C144.845,156.886,144.907,156.993,144.84,157.034L144.84,157.034z"/>
					</g>
					<g style="display:inline;">
						<path d="M146.888,153.8c-0.432,0.116-0.759,0.319-1.056,0.649c-0.053,0.059-0.14-0.028-0.087-0.087
							c0.309-0.344,0.665-0.561,1.111-0.681C146.932,153.66,146.965,153.779,146.888,153.8L146.888,153.8z"/>
					</g>
					<g style="display:inline;">
						<path d="M148.761,156.259c-0.245,0.417-0.562,0.717-0.992,0.937c-0.071,0.036-0.133-0.07-0.062-0.107
							c0.417-0.214,0.711-0.492,0.947-0.893C148.694,156.129,148.801,156.191,148.761,156.259L148.761,156.259z"/>
					</g>
					<g style="display:inline;">
						<path d="M137.869,161.196c-0.413,0.162-0.808,0.245-1.249,0.267c-0.079,0.004-0.079-0.12,0-0.123
							c0.431-0.021,0.819-0.106,1.216-0.262C137.91,161.048,137.943,161.168,137.869,161.196L137.869,161.196z"/>
					</g>
					<g style="display:inline;">
						<path d="M127.328,150.014c-0.387,0.138-0.775,0.276-1.162,0.414c-0.075,0.027-0.107-0.093-0.033-0.119
							c0.387-0.138,0.775-0.276,1.162-0.414C127.37,149.868,127.403,149.987,127.328,150.014L127.328,150.014z"/>
					</g>
					<g style="display:inline;">
						<path d="M124.092,148.842c-0.511,0.279-1.022,0.558-1.533,0.837c-0.07,0.038-0.132-0.068-0.062-0.107
							c0.511-0.279,1.022-0.558,1.533-0.837C124.099,148.697,124.162,148.804,124.092,148.842L124.092,148.842z"/>
					</g>
				</g>
			</g>
			<g>
				<path d="M182.026,190.717c-6.321,6.227-13.899,11.5-20.764,17.124c-0.988,0.809-2.411-0.598-1.414-1.414
					c6.865-5.623,14.443-10.897,20.764-17.124C181.53,188.399,182.945,189.812,182.026,190.717L182.026,190.717z"/>
			</g>
			<g>
				<path style="fill:#FFBEC6;" d="M155.042,213.146c1.45-0.174,4.842-2.48,5.77-3.606c0.546-0.662,1.641-1.58,1.918-2.392
					c0.473-1.386,0.074-2.987,0.695-4.314c0.265-0.566,0.696-1.034,1.12-1.493c1.287-1.391,2.574-2.783,3.861-4.174
					c0.058-0.062,0.117-0.126,0.192-0.166c0.318-0.17,0.701,0.209,0.687,0.569c-0.013,0.36-0.263,0.661-0.484,0.946
					c-1.068,1.371-1.757,3.034-1.97,4.759c3.123-1.743,6.314-3.54,8.656-6.243c1.133-1.309,2.189-2.906,3.869-3.321
					c-1.37,3.696-4.099,6.7-6.765,9.604c-0.889,0.968-1.778,1.936-2.667,2.905c-3.246,3.535-6.515,7.092-10.338,9.993"/>
			</g>
			<g>
				<g>
					<path style="fill:#FFFFFF;" d="M118.211,181.977c1.739,3.256,5.495,4.77,8.913,6.166c0.583,0.238,1.186,0.494,1.606,0.964
						c0.267,0.3,0.443,0.668,0.614,1.031c1.905,4.044,3.699,8.19,4.534,12.581c0.432,2.27,0.603,4.58,0.773,6.884
						c1.056,14.303,2.112,28.606,3.168,42.909c0.015,0.204,0.03,0.411-0.015,0.611c-0.234,1.043-1.681,1.086-2.742,0.963
						c-8.327-0.968-16.367,2.936-24.636,4.318c-0.299,0.05-0.669,0.069-0.839-0.182c-0.072-0.105-0.089-0.237-0.105-0.363
						c-0.825-6.718-0.997-13.517-0.513-20.268c0.168-2.345,0.415-4.691,0.357-7.042c-0.073-2.918-0.615-5.801-0.94-8.702
						c-0.562-5.023-0.47-10.093-0.376-15.146c0.057-3.114,0.119-6.26,0.873-9.282c1.443-5.786,5.282-10.63,9.025-15.272"/>
				</g>
				<g>
					<g style="opacity:0.51;">
						<path style="fill:#CECECE;" d="M114.879,191.023c-2.36,2.292-2.391,5.993-2.101,9.251c0.994,11.166,3.9,22.164,8.557,32.384
							c0.66,1.448,1.366,2.899,2.412,4.105c2.104,2.425,5.566,3.617,8.739,3.007c3.173-0.61,5.932-2.996,6.963-6.024"/>
					</g>
					<g style="opacity:0.51;">
						<path style="fill:#CECECE;" d="M129.305,241.813c-2.75,0.04-5.189-1.626-7.512-3.099c-2.291-1.452-4.663-2.775-7.102-3.962
							c-1.049-0.511-2.553-0.884-3.183,0.098c-0.407,0.634-0.156,1.472,0.155,2.159c2.731,6.037,9.623,9.841,16.203,9.061
							C132.109,245.568,134.055,241.617,129.305,241.813"/>
					</g>
					<g style="opacity:0.51;">
						<path style="fill:#CECECE;" d="M130.589,250.55c0.503-0.29,0.716-1.593,0.262-1.955s-1.089-0.377-1.668-0.325
							c-1.58,0.142-3.119,0.654-4.705,0.676c-3.259,0.045-6.348-1.976-9.588-1.618c-0.473,0.052-1.003,0.201-1.214,0.628
							c-0.139,0.281-0.1,0.621,0.011,0.915c0.475,1.254,1.984,1.707,3.294,1.996c2.268,0.501,4.55,1.003,6.871,1.087
							C126.174,252.038,128.56,251.679,130.589,250.55"/>
					</g>
				</g>
				<g>
					<g>
						<path style="fill:#FFFFFF;" d="M117.631,186.867c2.781,1.061,4.909,3.413,6.335,6.026s2.239,5.506,3.117,8.35
							c2.384,7.719,5.332,15.265,8.81,22.556c7.707-3.865,16.527-9.182,24.308-13.608c0.812,3.367,1.089,5.863,3.801,8.018
							c0.232,0.184,0.486,0.407,0.494,0.704c0.006,0.255-0.174,0.471-0.346,0.66c-4.073,4.488-8.739,8.416-13.7,11.896
							c-3.899,2.735-8.111,5.249-12.8,6.086c-1.638,0.292-3.346,0.385-4.854,1.088c-0.242,0.113-0.507,0.244-0.763,0.17
							c-0.25-0.072-0.405-0.314-0.537-0.538c-6.384-10.819-12.822-21.758-16.582-33.744c-0.771-2.456-1.431-4.988-1.392-7.562
							c0.04-2.574,0.851-5.223,2.673-7.042"/>
					</g>
					<g style="opacity:0.51;">
						<path style="fill:#CECECE;" d="M142.856,228.368c0.075,0.468,0.117,0.964-0.063,1.403c-0.18,0.439-0.647,0.794-1.111,0.696
							c-0.718-0.152-0.958-1.195-1.673-1.358c-0.304-0.069-0.625,0.047-0.876,0.232c-0.816,0.603-0.932,1.749-1.281,2.702
							s-1.435,1.889-2.28,1.327c-0.468-0.312-0.595-0.937-0.64-1.497c-0.186-2.302,0.3-4.698-0.456-6.88
							c-0.044-0.128-0.104-0.267-0.228-0.321c-0.139-0.06-0.296,0.011-0.435,0.071c-1.682,0.717-3.875-0.648-3.974-2.473
							c-0.048-0.88,0.309-1.724,0.595-2.558c0.684-1.995,0.989-4.12,0.895-6.227l0.105,0.109c1.372,3.454,2.847,6.868,4.447,10.222
							c1.176-0.59,2.384-1.222,3.604-1.87l0.134,0.139C141.326,223.764,142.479,226.001,142.856,228.368z"/>
					</g>
					<g style="opacity:0.51;">
						<path style="fill:#CECECE;" d="M144.788,219.037c0.435,0.391,1.658,1.435,2.093,1.826c0.558,0.502,1.128,1.019,1.469,1.687
							c0.341,0.668,0.407,1.531-0.033,2.138c-0.442,0.609-1.298,0.812-2.031,0.642c-0.733-0.17-1.357-0.651-1.882-1.191
							c-1.012-1.041-1.744-2.351-2.1-3.759"/>
					</g>
				</g>
			</g>
		</g>
	</g>
</g>
</svg>
